<svg version="1.1" xmlns="http://www.w3.org/2000/svg" viewBox="0 0 982.3925696923418 1358.5514221191406" width="982.3925696923418" height="1358.5514221191406">
  <!-- svg-source:excalidraw -->
  
  <defs>
    <style class="style-fonts">
      @font-face {
        font-family: "Virgil";
        src: url("https://excalidraw.com/Virgil.woff2");
      }
      @font-face {
        font-family: "Cascadia";
        src: url("https://excalidraw.com/Cascadia.woff2");
      }
    </style>
  </defs>
  <g stroke-linecap="round" transform="translate(10 251.9162214759637) rotate(0 101.890625 72.5625)"><path d="M0 0 C0 0, 0 0, 0 0 M0 0 C0 0, 0 0, 0 0 M0.07 5.68 C2.1 4.88, 3.72 2.52, 4.51 0.27 M-0.25 6.18 C0.61 4.99, 1.78 3.82, 5.13 0.47 M-0.97 13 C5.52 6.92, 8.05 4.48, 11.45 1.08 M0.86 11.32 C2.22 9.47, 4.86 6.54, 10.64 0.46 M-0.06 20.26 C6.03 10.45, 10.64 4.17, 14.74 1.7 M0.82 18.79 C3.14 13.7, 8.26 9.83, 16.44 1.25 M-0.01 24.66 C7.37 14.3, 18.16 6.06, 21.97 0.76 M-0.49 23.74 C7.25 14.83, 16.35 6.29, 20.59 0.32 M1.65 31.6 C9.47 19.61, 13.57 14.79, 27.35 2.02 M0.63 30.93 C9.8 20.11, 18.85 9.64, 26.89 0.64 M-0.67 38.88 C11.49 21.09, 22.9 10.9, 31.51 -1.4 M-0.8 36.16 C8.8 27.28, 17.72 15.4, 32.2 0.27 M1.43 42.92 C11.44 29.99, 27.29 13.71, 36.67 -0.94 M-0.26 42.46 C8.18 33.22, 15.23 24.3, 37.09 0.64 M0.62 48.85 C14.5 33.4, 23.77 19.86, 44.16 1.06 M0.08 48.49 C15.19 32.08, 30.94 14.56, 42.96 0.68 M-1.35 52.9 C16.18 37.37, 27.96 24.78, 49.39 1.19 M-0.09 55.37 C14.27 38.89, 26.67 22.79, 46.64 0.9 M1.39 60.2 C12.67 46.57, 24 35.98, 51.39 0.67 M-0.67 60.86 C11.09 48.67, 21.04 35.79, 53.56 -0.41 M-0.36 67.32 C13.73 51.54, 26.71 35.27, 59.79 -0.87 M-0.61 68.2 C12.91 51.56, 25.33 36.81, 58.31 0.88 M-0.57 72.16 C22.59 47.75, 46.05 21.46, 64.31 0.35 M-0.04 72.5 C25.07 45.14, 48.14 17.67, 63.85 -1.11 M0.31 80.09 C14.68 63.29, 29.25 43.78, 69.8 2 M-0.38 79.09 C15.3 60.89, 31.71 43.72, 68.05 -0.14 M0.17 86.34 C16.81 63.72, 34.47 42.4, 73.68 1.4 M0.18 84.42 C20.65 62.63, 39.26 39.92, 74.89 0.25 M-1.74 89.78 C25.5 59.08, 51.71 28.4, 80.98 1.28 M-0.75 92.2 C26.43 62.97, 50.5 34.06, 79.02 0.91 M0 99.46 C26.62 68.3, 54.55 37.16, 85.83 -0.51 M0.74 98.22 C31.06 61.19, 64.38 22.83, 84.93 -0.83 M-0.67 104.55 C23.6 77.48, 47.37 50.85, 90.49 -1.18 M0.77 102.78 C22.85 78.49, 44.07 53.81, 89.55 0.95 M0.91 108.38 C31.29 75.78, 60.72 38.48, 94.77 0.67 M-0.46 109.04 C26.34 81.73, 51.25 51.93, 95.39 -1.06 M1.02 114.94 C32.27 74.48, 68.89 36.08, 99.13 -1.14 M-0.15 115.9 C39.44 71.22, 80.25 25.54, 101.15 0.68 M-1.46 122.59 C40.06 76.65, 77.65 31.37, 106.1 1.35 M-0.31 122.1 C22.14 95.64, 42.57 70.3, 106.88 -1.31 M-0.21 126.62 C30.61 89.47, 65 53.18, 111.33 0.01 M0.71 129.16 C33.48 89.29, 65.88 52.88, 110.55 0.63 M0.82 133.19 C26.78 102.62, 56.85 72.28, 116.41 1.09 M0.14 133.67 C36.2 93.01, 69.92 52.97, 116.56 0.11 M1.68 141.39 C37.84 98.09, 73.93 54.71, 123.14 -0.76 M0.71 139.75 C32.97 100.84, 69.57 61.16, 121.64 -0.87 M-0.72 145.67 C30.46 109.66, 61.03 75.19, 127.86 -0.46 M1.06 145.84 C50.72 87.66, 101.56 30.03, 126.73 0.43 M4.29 146.88 C46.95 95.61, 89.93 51.02, 134.23 -0.08 M6.34 146.11 C40.39 107.6, 71.87 70.23, 133.5 0.34 M11.61 147.81 C38.24 111.45, 69.22 80, 136.28 1 M10.27 146.42 C56.09 92.95, 101.52 41.43, 136.91 0.95 M18.32 144.63 C63.09 88.51, 114.55 34.32, 143.9 -0.23 M16.72 146.07 C56.21 101.88, 94.09 56.3, 142.4 0.21 M22.11 145.92 C65.35 95.1, 111.17 42.94, 149.8 -0.6 M21.79 145.22 C47.05 114.89, 71.41 85.78, 148.47 0.05 M26.76 146.36 C58.27 110.56, 89.87 71.57, 155.07 -1.09 M26.87 145.02 C64.72 101.37, 102.43 58, 153.82 0.52 M33.19 144.59 C68.85 102.47, 107.13 63.92, 160.14 -0.98 M31.33 145.75 C74.08 95.56, 117.74 43.86, 157.96 -0.09 M36.87 144.86 C65.66 113.12, 91.39 85.4, 166.29 -0.18 M37.6 144.9 C73.96 105.22, 108.43 64.5, 164.38 -1.14 M42.91 146.83 C73.57 112.75, 98.79 80.57, 170.67 -1.45 M43.81 145.35 C88.54 91.82, 136.24 36.49, 169.13 0.51 M47.5 147.3 C82.36 109.02, 114.94 68.89, 175.74 -0.65 M48.9 145.44 C85.04 106.26, 120.36 65.41, 175.94 0.62 M52.94 145.98 C90.66 105.83, 123.87 63.11, 180.36 -0.99 M53.28 145.17 C83.52 110.13, 114.63 74.54, 180.89 -0.32 M57.14 147.21 C99.44 97.26, 140 53.09, 185.22 0.73 M59.94 146.21 C99.05 101.59, 140.09 55.33, 185.5 -0.98 M64.59 145.77 C98.86 107.03, 132.06 68.13, 191.84 -0.15 M65.04 146.17 C108.59 97.34, 149.38 47.72, 191.37 1.01 M67.89 144.53 C97.2 109.52, 129.05 73.6, 196.14 1.58 M69.09 144.57 C118.2 89.61, 166.22 34.89, 197.29 -0.91 M74.76 144.32 C122.96 95.06, 167.47 43.17, 199.34 -1.16 M75.54 145.12 C121.68 94.57, 166.99 42.19, 201.87 -0.05 M81.5 145.55 C124.35 92.46, 174.1 37.98, 204.24 -0.61 M79.91 145.71 C109.93 109.56, 140.6 73.78, 205.38 1.16 M84.02 146.1 C111.53 115.69, 135.67 86.53, 206.16 7.7 M84.43 146.62 C115.19 112.88, 143.74 77.47, 206.33 7.29 M91.33 146.94 C135.15 92.21, 179.58 39.88, 205.68 14.32 M91.14 144.61 C122.64 109.9, 151.56 74.6, 205.84 13.71 M96.54 145.97 C119.78 119.31, 141.88 94.17, 204.42 17.97 M96.54 145.06 C128.62 111.05, 158.94 73.39, 205.04 19.06 M102.36 143.74 C131.05 108.42, 163.21 72.82, 207.25 27.04 M100.7 146.08 C141.16 98.62, 181.44 53.5, 204.92 25.11 M108.12 145.17 C131.16 117.19, 157.33 86.43, 207.15 30.03 M105.89 146.65 C140.87 106.22, 176.25 67.17, 204.8 31.6 M110.56 146.12 C131.87 123.01, 149.42 102.93, 204.2 37.39 M111.06 145.49 C139.91 113.52, 168.77 79.06, 204.94 38.39 M118.17 147.31 C150.54 106.48, 187.58 66.79, 206.44 43.94 M117.7 145.42 C144.61 113.58, 170.97 83.92, 205.02 44.34 M121.45 144.38 C151.69 113.33, 181.84 78.17, 204.1 50.88 M121.83 145.77 C151.85 113.65, 180.11 80.67, 206.05 49.65 M129.75 146.36 C153.87 115.47, 179.01 87.39, 203.96 55.84 M128.37 145.21 C157.83 110.44, 187.95 77.2, 206.25 56.28 M134.26 145.43 C155.62 121.8, 172.24 99.29, 206.12 63.34 M131.84 145.91 C160.1 115.06, 187.9 83.37, 205.57 62.78 M137.54 146.68 C164.05 115.54, 189.98 87.68, 207.04 70.55 M139.47 145.66 C154.21 128.44, 169.53 110.93, 206.27 68.47 M144.47 145.83 C160.6 128.58, 175.45 108.01, 204.39 73.78 M143.78 145.98 C159.16 127.44, 175.41 107.84, 205.38 74.25 M147.82 147.01 C164.47 130.94, 177.33 111.73, 207.3 82.49 M149.78 146.24 C162.17 131.59, 173 118.17, 204.67 81.02 M155.19 144.49 C167.97 129.9, 185.22 111.45, 206.66 85.29 M153.52 145.83 C165.28 132.74, 177.74 117.04, 204.5 86.07 M158.53 144.44 C175.88 129.82, 188.32 113.44, 203.97 92.44 M159.26 146.22 C175.88 128.13, 191.26 109.75, 206.28 91.88 M165.15 146.7 C175.53 130.59, 188.42 121.2, 206.32 97.6 M164.09 145.14 C178.4 129.82, 191.83 113.7, 205.16 98.33 M171.21 146.48 C180.86 129.83, 194.21 118.56, 203.25 104.33 M171.06 144.68 C183.57 131.01, 195.99 117.61, 204.43 105.53 M176.73 144.15 C185.17 135.56, 191.59 128.17, 205.04 112.08 M175.76 145.42 C185.72 133.53, 196.48 121, 205.45 110.19 M179.05 146.97 C186.84 138.84, 194.44 130.03, 204.95 118.2 M181.51 144.54 C186.39 138.95, 190.94 132, 205.6 118.03 M187.89 146.86 C193.28 137.08, 200.99 129.25, 204.12 124.45 M185.94 145.97 C191.9 139.18, 197.68 131.1, 206.66 122.61 M190.82 146.14 C193.32 141.49, 196.14 139.36, 206.52 130.73 M192.13 144.49 C195.2 140.47, 198.38 137.19, 205.51 129.5 M196.39 146.73 C199.48 142.77, 200.13 140.81, 204.29 137 M197.03 145.84 C199.62 142.09, 201.81 139.53, 204.77 135.4 M202.44 145.66 C203.29 143.99, 204.22 143.6, 205.58 141.23 M202.1 145.28 C203.61 143.95, 204.78 142.44, 205.58 141.46" stroke="#228be6" stroke-width="0.5" fill="none"></path><path d="M0.64 -1.74 C63.55 1.98, 127.24 1.26, 204.85 -0.33 M0.47 -0.79 C47.93 -0.74, 94.87 -0.72, 204.61 -0.57 M204.32 0.71 C202.94 53.95, 203.78 105.93, 204.91 145.87 M203.93 -0.42 C203.24 39.96, 203.43 78.68, 203.67 146.12 M204.32 143.76 C143.83 145.18, 86.74 143.34, -1.72 146.04 M203.09 145.02 C160.98 144.27, 119.44 144.8, 0.3 144.96 M-0.19 145.47 C2.18 89.34, -0.35 32.51, 0.75 1.31 M0.48 144.5 C-1.64 115.06, -0.97 85.8, 0.06 0.36" stroke="#000000" stroke-width="1" fill="none"></path></g><g stroke-linecap="round" transform="translate(388.94037207837766 508.6654585365106) rotate(0 101.89062500000006 72.5625)"><path d="M0 0 C0 0, 0 0, 0 0 M0 0 C0 0, 0 0, 0 0 M-0.98 7.12 C1.59 5.38, 2.58 2.48, 4.9 -0.24 M-0.48 6.14 C1.73 3.79, 3.95 1.86, 5.1 0.58 M1.09 13.62 C1.74 9.7, 6.01 7.35, 11.74 -1.33 M-0.59 11.81 C3.14 8.69, 5.77 5.21, 11.13 0.49 M1.69 18.77 C2.61 12.88, 7.06 8.1, 16.99 -0.89 M0.22 17.82 C3.15 14.76, 7.32 10.59, 16.54 1.18 M0.85 22.95 C4.93 19.81, 11.11 13.08, 22.09 1.44 M-0.07 23.17 C6.31 17.4, 13.05 9.3, 21.65 -0.17 M1.13 32.29 C5.27 20.04, 16.61 14.32, 27.97 1.11 M0.46 31.34 C7.93 22.04, 15.78 12.49, 26.6 1.03 M1.74 36.73 C8.46 23.86, 22.81 11.9, 30.6 -0.4 M-0.97 36.81 C10.6 25.34, 19.16 14.57, 32.26 0.3 M0.54 40.94 C9.83 35.08, 15.74 24.15, 35.68 -1.64 M0.08 43.13 C11.49 29, 23.24 15.3, 37.27 0.13 M-0.19 50.83 C7.29 37.49, 16.72 29.99, 43.71 1.09 M-0.56 49.09 C15.9 31.97, 31.21 14.54, 43.33 -0.19 M-1.39 56.53 C13.16 38.63, 30.62 24.57, 48.47 -0.04 M1.08 55.24 C16.4 35.64, 32.07 16.63, 48.19 -0.65 M-0.74 62.63 C17.47 40.67, 38.67 15.62, 53.99 -2.15 M-0.09 61.88 C20.73 37.76, 40.79 14.25, 52.92 -0.68 M-0.29 67.22 C21.95 41.26, 43.66 20.17, 57.08 -1.35 M0.59 67.62 C17.6 45.75, 36.49 24.8, 58.83 0.75 M-0.69 72.35 C16.12 55.98, 31.01 38.95, 64.34 1.44 M-0.36 73.5 C18.42 51.5, 37.07 31.44, 62.88 -1.03 M0.58 78.56 C16.24 60.4, 29.27 45.15, 70.62 -1.21 M-0.43 79.16 C23.25 52.77, 47.94 24.85, 68.47 -0.44 M1.57 83.86 C22.38 57.28, 44.56 31.39, 76.05 -0.99 M-0.35 85.42 C17.8 64.4, 35.08 45.09, 74.9 0.11 M-1.64 89.98 C18.92 66.53, 39.49 46.14, 80.56 0.37 M0.77 92.2 C16.54 73.03, 32.71 53.61, 80.19 0.21 M1.38 97.39 C17.82 79.05, 34.22 58.89, 84.81 1.37 M0.14 97.09 C31.11 61.96, 60.7 26.87, 84.48 -0.76 M1.21 103.78 C22.69 79.27, 44.72 52.31, 88.77 -1 M-0.55 103.51 C22.52 76.93, 45.12 52.13, 90.9 0.32 M-1.61 110.56 C32.53 72.78, 61.94 37.04, 96.65 -1.05 M-0.95 110.85 C26.99 80.77, 52.37 49.64, 94.92 0.09 M-0.3 113.87 C33.33 75.89, 69.07 33.5, 99.47 1.91 M0.66 115.06 C30.15 83.88, 58.51 50.53, 101.29 0.7 M0.69 122.85 C27.94 89.45, 55.93 56.45, 108 -2.21 M0.2 122.53 C34.73 80.16, 70.46 40.48, 105.34 -0.44 M-1.94 126.57 C29.31 92.59, 61.53 56.33, 111.28 -0.03 M0.6 128.74 C31.65 89.24, 66.15 51.29, 111.9 -0.67 M-0.61 132.62 C24.47 106.87, 49.85 76.5, 116.99 0.32 M-0.13 134.35 C23.69 104.91, 48.27 76.92, 116.01 0.47 M0.93 141.54 C45.99 87.21, 90.85 37.3, 121.18 -0.34 M-0.72 139.38 C42.38 92.03, 84.55 42.55, 121.07 -0.61 M-0.04 145.85 C38.38 101.16, 78.46 56.77, 126.1 2.33 M0.12 145.75 C37.26 102.29, 74.98 59.38, 126.99 0.59 M7.2 145.53 C41.61 104.14, 82.83 59.81, 132.52 -0.9 M6.44 146.46 C35.02 110.79, 64.74 78.06, 132.94 -0.75 M12.76 144.1 C48 101.77, 88.09 56.94, 138.23 1.5 M11.38 145.27 C45.55 105.39, 81.71 65.01, 138.18 1.14 M15.62 144.49 C61.73 92.81, 109.88 38.29, 143.04 0.02 M17.06 146.21 C52.43 104.95, 86.34 64.05, 143.47 0.47 M21.53 144.66 C60.1 101.93, 97.26 60.88, 147.29 -1.62 M20.84 146.79 C70.26 87.39, 121.01 31.06, 147.94 -0.23 M28.02 143.74 C55.9 112.58, 80.6 84.28, 152.84 -0.22 M26.67 145.81 C64.67 101.86, 103.12 56.58, 154.45 -0.22 M30.87 144.4 C56.52 116.07, 85.63 88.13, 157.58 1.14 M32.03 145.29 C80.6 90.45, 127.75 34.42, 158.46 -0.69 M37.18 146.97 C72.1 104.89, 111.22 63.6, 164.41 -0.63 M37.22 146.33 C72.65 105.84, 107.16 65.2, 163.45 -0.89 M43.77 147.8 C80.02 101.48, 118.05 61.54, 167.77 1.59 M42.29 144.97 C81.29 99.86, 118.68 54.68, 169.74 -0.22 M50.28 145.45 C76.03 115.38, 100.05 85.49, 174.61 -0.61 M48.43 146.06 C82.54 108.09, 114.85 71.07, 175.88 -0.42 M53.58 146.98 C83.67 110.9, 111.34 77.56, 178.9 -0.87 M52.77 145.17 C98.02 94.48, 142.53 45.72, 179.56 0.39 M60.86 146.13 C106.03 91.74, 156.94 35.47, 186.66 0.1 M59.86 144.45 C91.43 109.9, 121.18 75.23, 184.95 -0.5 M64.04 145.67 C99.52 104.29, 134.87 67.18, 190.4 0.83 M64.44 146.47 C89.95 114.3, 114.61 86.62, 191.56 -0.45 M68.84 143.55 C117.42 90.27, 165.08 34.91, 198.17 1.34 M68.88 146.14 C110.41 99.46, 152.22 52.37, 195.68 0.35 M73.25 147.23 C105.41 112.98, 134.8 77.76, 200.05 1.36 M74.06 146.59 C113.01 102.95, 149.95 61.43, 201.17 0.83 M80.53 143.88 C129.11 91.03, 176.3 32.87, 203.82 0.11 M80.68 144.99 C123.53 95.07, 166.9 44.76, 205.6 0.32 M85.7 146.65 C120.97 104.35, 157.37 63.46, 205.48 6.56 M86.22 146.47 C127.93 98.98, 167.9 52.95, 205.06 8.55 M92.58 144.92 C126.86 101.27, 163.56 59.81, 205.44 13.34 M90.25 146 C119.72 110.62, 148.7 78.52, 204.82 13.1 M96.24 146.54 C127.64 108.86, 160.61 71.06, 203.84 19.34 M95.32 146.23 C121.64 116.63, 144.27 88.34, 204.92 19.66 M100.04 144.1 C136.17 103.87, 171.91 65.22, 206.24 27.69 M102.38 145.39 C132.38 110.12, 164.87 72.1, 204.31 25.65 M106.11 145.15 C142.99 104.35, 177.02 65.39, 203.99 32.72 M107.58 145.16 C137.15 112.08, 167.99 76.79, 205.55 30.77 M111.68 147.22 C142.7 109.27, 176.77 72.35, 204.69 38.27 M111.05 145.3 C139.92 114.12, 166.22 82.91, 205.69 38.97 M118.9 144.31 C139.16 121.78, 160.48 96.4, 204.58 44.62 M117.02 145.76 C140.03 117.3, 165.23 90.24, 204.98 44.98 M120.6 145.44 C139.96 127.3, 155.24 105.86, 206.27 51.06 M121.99 146.82 C148.83 117, 174.74 87.77, 205.04 50.5 M128.62 145.54 C150.79 117.35, 175.74 90.47, 204.57 58.35 M127.47 145.71 C154.16 114.55, 182.34 84.92, 205.01 56.3 M132.32 147.82 C147.15 126.15, 163.14 110.67, 206.83 63.69 M132.8 146.48 C160.93 116.06, 188.17 83.44, 206.26 62.84 M139.6 145.93 C151.34 130.82, 166.32 113.96, 207.38 67.06 M138.59 145.87 C155.42 126.25, 171.93 107.27, 205.29 68.19 M143.38 146.28 C157.64 129.74, 168.61 115, 203.95 74.14 M143.53 145.22 C157.97 128.39, 171.43 112.08, 204.41 74.57 M150.6 146.22 C168.45 125.25, 183.08 108.61, 207.4 78.82 M149.83 146.3 C162.39 129.38, 176.1 113.31, 205.94 80.55 M152.71 144.37 C167.59 132.3, 178.6 118.96, 203.55 85.76 M154.04 145.21 C172.96 125.07, 189.27 103.93, 204.32 87.15 M158.7 146.78 C170.87 133.41, 181.21 120.76, 205.45 93.3 M160.47 146.24 C172.75 131.9, 184.69 117, 204.89 92.46 M165.59 145.26 C175.09 132.23, 191.36 117.86, 203.95 99.8 M164.02 145.77 C176.49 131.95, 188.14 118.29, 204.68 99.53 M171.4 143.58 C176.74 135.37, 187.49 124.76, 204.02 106.55 M169.6 146.11 C178.92 135.8, 188.55 124.22, 205.22 104.96 M173.69 147.76 C180.3 138.89, 188.14 130.1, 206.52 112.36 M174.97 145.42 C186.62 132.53, 197.62 120.49, 204.64 111.06 M182.55 144.25 C191.81 134.4, 200.4 124.37, 205.99 115.99 M180.12 145.54 C189.84 134.13, 198.2 124.85, 205.81 117.99 M187.07 146.28 C191.88 139.21, 198.67 128.63, 206.98 123.18 M186.18 145.89 C193.47 137.39, 199.5 130.09, 205.14 122.31 M192.39 144.02 C194.83 139.7, 199.8 138.15, 206.6 128.92 M190.74 145.33 C195.89 139.08, 201.78 134.11, 205.37 128.95 M197.61 146.48 C198.05 142.74, 200.5 140.21, 206.22 136.22 M196.72 145.94 C198.25 142.88, 200.97 140.44, 204.61 135.82 M202.57 145.44 C202.97 144.3, 204.63 143.1, 205.2 142.05 M202.19 145.37 C203.18 144.32, 203.99 143.52, 205.42 141.6" stroke="#228be6" stroke-width="0.5" fill="none"></path><path d="M-1.74 0.32 C68.55 0.13, 135.03 0.42, 203.45 -1.23 M-0.79 0.83 C46.3 -0.27, 91.96 -0.12, 203.21 0.55 M204.49 -0.93 C206.49 44.38, 205.93 90.07, 204.53 144.51 M203.36 0.27 C203.72 35.96, 203.37 70.9, 204.77 145.01 M202.42 143.91 C138.11 146.11, 69.64 143.95, 0.91 143.49 M203.67 144.76 C146.01 144.26, 88.85 144.01, -0.16 145.86 M0.35 146.82 C0.02 105.64, -1.33 68.59, 1.31 -1.89 M-0.62 144.27 C0.69 93.59, 1.29 42.48, 0.36 -0.67" stroke="#000000" stroke-width="1" fill="none"></path></g><g stroke-linecap="round" transform="translate(704.0096206665039 303.5371891427967) rotate(0 101.890625 72.5625)"><path d="M0 0 C0 0, 0 0, 0 0 M0 0 C0 0, 0 0, 0 0 M0.46 6.71 C1.57 4.95, 1.51 3.74, 4.39 1.06 M-0.52 6.32 C0.74 5.07, 2.42 3.62, 5.21 0.08 M1.71 11.12 C2.93 10.23, 5.7 7.73, 9.33 -0.37 M-0.1 12.11 C3.21 8.37, 6.19 5.56, 11.16 -0.35 M0.2 17.16 C4.63 10.94, 10.16 6.82, 14.4 -0.97 M-0.75 18.16 C6.44 11.67, 12.52 5.51, 16.47 -0.24 M-0.87 23.42 C6.19 19.45, 9.65 14.9, 22.77 -0.16 M-0.65 23.72 C5.28 19.11, 8.85 14.11, 21.16 -0.25 M1.81 28.52 C7.51 21.42, 19.78 10.29, 27.07 0.41 M0.86 30.6 C10.5 19.12, 19.9 8.35, 26.99 0.63 M-0.4 35.19 C11.48 24.23, 24.27 6.7, 31.59 0.06 M-0.33 37.78 C8.94 25.96, 18.88 16.05, 32.29 -0.98 M-1.44 44.08 C9.72 32.81, 15.85 22.62, 34.98 0.78 M0.75 41.91 C11.67 28.75, 23.01 17.06, 36.75 -0.66 M1.79 47.75 C13.91 30.75, 31.89 14.97, 43.75 0.94 M0.05 49.6 C10.97 37.71, 21.58 25.33, 42.47 -0.17 M2.24 53.11 C11.85 43.9, 25.25 29.86, 47.25 1.07 M0.95 54.32 C12.53 39, 24.68 26.02, 46.64 0.76 M1.68 59.26 C13.88 47.38, 23.04 32.99, 51.18 1.59 M0.93 60.54 C12.12 46.76, 23.87 34.27, 52.64 0.47 M-0.39 67.94 C12.27 52.1, 29.8 33.68, 56.6 0.58 M0.01 66.59 C17.58 45.7, 36.03 26.3, 58.7 -0.43 M-0.51 73.52 C16.88 54.78, 33.58 36.28, 65.42 -0.5 M0.64 73.04 C17.84 52.8, 36.96 30.3, 62.96 -0.99 M-0.95 81.06 C24.09 49.06, 52.07 21.97, 67.41 0.97 M-0.36 79.07 C18.96 59, 36.73 36.34, 68.17 0.26 M-0.91 84.71 C26.28 52, 54.17 23.41, 73.66 -1.49 M0.66 85.34 C25.39 56.15, 51.83 27.34, 74.76 -0.64 M-1.44 89.57 C22.04 63.62, 48.48 40.24, 79.65 -1.71 M0.78 92.14 C30.79 56.59, 60.46 22.47, 79.49 -0.86 M-0.69 98.12 C21.52 72.73, 41.93 49.17, 86.69 0.86 M-0.99 98.25 C19.83 72.83, 40.83 48.45, 84.56 -0.76 M0.44 104.22 C35.84 64.23, 68.72 23.87, 88.94 -1.05 M0.18 103.28 C19.54 80.63, 40.77 56.96, 90.26 0.33 M0.57 111.16 C24.46 80.29, 50.48 51.69, 94.93 -0.84 M0.86 110.13 C24.02 83.59, 46.07 56.91, 96.08 0.16 M-1.37 114.1 C33.82 77.15, 64.67 38.3, 102.52 -0.24 M-0.18 115.76 C23.28 90.23, 44.51 66.04, 101.3 -0.25 M0.95 121.88 C39.15 76.56, 77.65 34.76, 104.43 0.39 M0.63 121.42 C36.54 78.55, 75.07 35.56, 106.2 -0.54 M-1.99 127.46 C41.3 81.87, 82.3 34.33, 111.24 -0.12 M0.18 127.42 C30.83 90.68, 63.18 52.78, 110.6 -0.84 M-1.19 133.96 C41.21 89.36, 79.05 44, 116.22 -1.33 M0.54 133.6 C43.47 83.32, 87.86 33.48, 116.37 1.05 M1.07 140.64 C26.43 107.52, 56.36 73.98, 121.6 0.86 M-1.09 139.65 C25.5 110.91, 50.11 80.84, 121.33 0.1 M0.14 145.43 C45.92 94.51, 91.91 41.94, 128.9 0.21 M0.04 145.99 C38.56 101.45, 77.77 55.66, 127.16 0.38 M5.86 143.84 C55.8 91.8, 102.65 36.8, 131.7 -1.39 M6.78 145.12 C42.8 101.2, 81.83 58.44, 131.85 -0.06 M9.05 144.64 C44.38 106.42, 77.28 67.12, 138.73 -0.12 M10.22 145.63 C51.65 99.21, 92.47 52.59, 138.37 0.98 M15.48 145.18 C62.83 94.83, 107.5 40.76, 143.29 -0.56 M17.2 145.88 C49.35 105.98, 81.9 68.91, 143.73 -0.12 M20.27 146.47 C54.35 107.36, 90.15 67.56, 146.28 2.16 M22.4 145.52 C65.29 95.58, 111.31 43.3, 147.66 -0.57 M25.4 146.91 C63.21 100.6, 103.86 57.66, 153.71 0.01 M27.46 145.53 C77.96 88.61, 127.05 32.48, 153.71 -1.12 M30.68 144.07 C62.97 112.39, 95.73 73.09, 159.7 1.91 M31.57 146.4 C76.21 95.18, 119.51 45.74, 157.87 0.13 M39.28 144.4 C88.59 90.76, 138.59 32.88, 163.96 -0.63 M38.65 146.22 C84.17 93.91, 129.51 40.1, 163.71 -0.22 M44.74 145.01 C71.24 110.66, 104.13 74.38, 170.81 0.35 M41.91 146.84 C91.89 87.87, 141.99 30.71, 169 -0.69 M48.43 147.38 C95.38 90.35, 142.43 37.31, 174.65 -1.06 M49.04 145.93 C76.2 113.74, 104.4 82.19, 174.84 -0.83 M54.59 147.19 C100.2 90.52, 148.5 35.98, 179.02 1.11 M52.78 145.19 C79.72 115.48, 108.57 83.96, 180.28 0.97 M59.78 143.96 C96.27 104.97, 130.7 63.94, 186.02 -1.5 M58.09 146.42 C83.58 115.62, 109.11 84.47, 185.43 -0.5 M63.94 146.91 C101.82 102.19, 144.03 54.43, 191.38 -1.84 M64.74 145.65 C94.94 106.12, 129.81 69.73, 190.1 0.96 M67.86 144.61 C107.96 101.26, 145.82 61.54, 197.93 0.25 M70.46 145.28 C112.5 99.52, 154.03 50.93, 196.94 -1 M76.17 146.84 C104.6 114.3, 132.07 77.09, 202.58 -0.15 M75.53 146.2 C99.09 118.23, 124.93 87.86, 202.04 0.93 M78.85 146.21 C119.06 101.62, 154.06 56.03, 204.54 2.21 M79.96 145.91 C128.59 89.75, 176.74 34.38, 204.76 1.25 M86.25 144.03 C114.11 111.4, 143.27 80.86, 204.33 8.48 M86.08 146.65 C118.07 107.63, 151.36 70.88, 206.32 7.88 M90.56 143.97 C124.7 102.3, 161.06 64.46, 204.46 13.14 M91.64 145.52 C130.27 99.62, 172.21 52.97, 204.21 13.91 M96.81 145.89 C131.49 105.69, 166.1 61.47, 205.21 18.11 M96.5 146.62 C125.07 110.82, 155.05 76.41, 205.52 20.08 M100.4 143.51 C124.56 117.4, 150.34 92.78, 206.89 26.24 M101.69 145.14 C144.46 97.59, 184.33 49.22, 204.85 26.6 M106.08 146.23 C129.99 117.31, 155.85 88.28, 206.68 31.72 M106.09 145.54 C130.08 119.52, 151.76 92.54, 204.73 32.07 M112.77 145.56 C140.67 114.17, 169.53 77.86, 205.56 37.94 M110.86 146.36 C134.66 118.86, 158.36 93.12, 206.27 37.57 M115.91 145.2 C139.69 119.47, 160.7 95.25, 205.26 43.91 M117.36 144.65 C143.13 115.27, 170.37 83.81, 205.62 43.52 M121.66 146.98 C149.82 115.21, 174.62 85.87, 206.45 50.29 M123.05 146.32 C142.34 124.25, 162.17 100.72, 205.89 50.11 M127.8 145.36 C148.42 121.2, 170.47 93.1, 207.08 57.41 M127.97 145 C148.22 122.88, 170.07 97.67, 205.03 55.63 M134.7 145.24 C154.89 118.12, 181.35 91.33, 207.17 63.71 M133.37 146.23 C153.22 124.65, 170.77 103.79, 206.33 61.35 M138.85 143.63 C158.97 122.5, 177.28 104.83, 203.89 67.57 M138.8 145.48 C155.86 125.02, 173.65 105.03, 205.01 67.68 M143.83 147.46 C163.81 120.6, 185.63 94.98, 204.3 73.74 M142.78 146.37 C167.21 117.05, 192.19 89.12, 204.73 74.98 M149.81 147.3 C160.16 131.02, 174.8 119.93, 203.74 79.38 M149.89 144.74 C160.15 131.07, 171.32 118.48, 205.46 79.99 M152.58 147.12 C169.27 129.3, 184.74 110.5, 204.02 88.05 M153.43 146.82 C170.35 126.42, 186.21 107.52, 205.41 86.22 M161.03 146.04 C169.31 135.05, 178.26 122.62, 206.31 92.2 M160.49 145.3 C170.67 132.86, 180.23 121.8, 205.47 92.73 M164.14 144.08 C181.17 129.63, 196.88 108.17, 206.15 98.94 M164.65 145.49 C175.67 132.76, 186.83 120.04, 205.88 98.38 M168.5 143.89 C181.62 132.52, 192.36 116.49, 206.24 104.52 M171.03 145.45 C183.51 131.93, 194.76 116.6, 204.65 104.61 M177.3 144.56 C187.83 132.42, 198.45 119.63, 206.8 112.33 M174.97 146.09 C183.11 136.53, 192.12 125.49, 205.5 111.84 M179.84 147.28 C189.26 136.51, 198.46 125.79, 203.77 118.92 M181.12 145.31 C188.09 135.64, 197.21 127.73, 205.77 117.89 M186.49 145.18 C194.82 136.29, 199.65 129.23, 205.72 124.5 M186.1 146.14 C192.98 136.78, 201.06 129.02, 204.84 122.78 M190.27 145.01 C194.9 140.81, 202.31 135.6, 204.79 130.66 M191.57 144.82 C195.91 140.24, 201.53 134.1, 204.82 128.92 M197.36 145.21 C199.11 141.92, 202.08 139.49, 205.44 135.25 M196.82 145.25 C198.66 143, 201.12 139.51, 205.04 135.94 M202.36 145.06 C203.33 144.59, 204.25 142.72, 206.02 141.32 M202.29 145.44 C203.1 144.38, 204.17 143.12, 205.57 141.45" stroke="#ced4da" stroke-width="0.5" fill="none"></path><path d="M0.32 1.37 C55.11 2.43, 109.74 1.45, 202.55 -1.36 M0.83 0.67 C77.61 2.31, 154.69 1.04, 204.34 0.06 M202.85 1.4 C204.08 57.46, 205.3 113.99, 203.17 144.02 M204.05 0.88 C204.45 34.59, 203.89 69.1, 203.66 145.39 M202.57 146.07 C153.02 142.84, 99.66 144.65, -1.64 144.82 M203.42 145.04 C151.86 145.36, 99.15 144.74, 0.74 144.82 M1.69 144.83 C-0.71 103.12, 0.88 65.71, -1.89 1.08 M-0.86 144.91 C-0.88 111.05, -0.64 76.57, -0.67 0.73" stroke="#000000" stroke-width="1" fill="none"></path></g><g stroke-linecap="round" transform="translate(10 508.1107255455206) rotate(0 101.890625 72.5625)"><path d="M0 0 C0 0, 0 0, 0 0 M0 0 C0 0, 0 0, 0 0 M0.05 7.12 C1.4 3.82, 3.28 1.63, 5.69 -0.11 M-0.34 6.13 C1.46 4.76, 3.05 3.01, 4.71 0.05 M-0.78 12.42 C3.41 9.97, 6.02 5.06, 10.3 -0.15 M0.2 12.15 C4.12 7.36, 8.94 3.16, 10.32 0.4 M-1.4 17.62 C3.55 12.05, 10.63 6.21, 14.32 1.95 M-0.41 19.17 C6.2 12.22, 13.15 5.11, 15.05 -0.62 M-0.4 25.65 C6.61 18, 13.04 11.89, 21.17 -1.75 M-0.09 24.38 C5.24 18.19, 10.16 13.34, 21.08 0.54 M-1.96 28.78 C11.83 19.81, 21.61 8, 26.36 1.7 M0.12 31.44 C9.31 19.97, 19.22 9.14, 26.58 1.15 M-1.94 36.12 C10.29 26.2, 16.02 15.96, 32.05 -0.31 M0.65 36.56 C7.48 28.11, 16.21 19.1, 31.01 -0.9 M1.7 44.28 C13.12 27.2, 25.64 10.1, 37.4 0.38 M-0.47 42.64 C8.88 31.51, 19.68 20.16, 35.96 0.84 M-1.3 47.85 C13.66 33.61, 29.83 16.67, 43.6 -1.13 M0.56 49.43 C14.66 33.55, 28.26 17.32, 42.49 -0.74 M-1.18 54.37 C13.04 44.08, 22.37 30.04, 48.36 -0.47 M0.03 54.08 C11.52 39.06, 25.4 24.74, 48.04 -0.41 M-1.69 62.64 C20.56 36.2, 40.28 13.45, 54.92 -1.84 M-0.41 61.13 C11.39 46.71, 24.47 31.62, 53.79 -0.74 M0.33 65.66 C17.99 49.28, 33.08 26.32, 58.53 0.33 M-1.02 67.01 C14.07 49.64, 30.72 32.28, 57.52 -0.25 M0.67 73.16 C17.56 54.39, 34.65 36.15, 63.48 -0.45 M0.18 72.26 C18.96 52.15, 35.42 30.67, 63 0.52 M1.54 78.12 C21.17 55.25, 45.74 27.38, 69.58 -0.42 M-0.45 79.6 C19.88 57.13, 37.59 35.53, 68.87 0.83 M-0.05 83.71 C20.4 59.61, 45.07 34.46, 73.16 0.64 M0.57 84.58 C22.32 60.47, 44.37 35.56, 74.02 -0.34 M-1.85 89.62 C15.64 74.23, 35.6 53.54, 77.56 1.69 M0.72 91.45 C17.41 70.04, 35.62 50.08, 78.42 -0.45 M0.04 98.98 C25.06 68.16, 52.03 38.35, 86.18 -1.33 M0.17 97.8 C32.97 59.22, 66.87 19.71, 84.56 0.49 M0.89 104.9 C23.06 77.01, 44.92 48.67, 88.89 -1.27 M-0.05 102.64 C33.93 65.55, 66.79 28.85, 90.27 -0.2 M1.17 108.99 C34.01 69.94, 69 31.38, 95.14 -1.5 M0.14 110.58 C25.64 79.42, 50.88 50.88, 96.14 -0.01 M-1.14 116.32 C33.96 75.89, 67.12 40.34, 100.37 -1.64 M0.52 116.4 C25.58 86.83, 52.04 57.32, 100.36 0.67 M-0.02 121.69 C22.9 93.58, 49.38 64.26, 107.04 0.62 M-0.48 120.99 C27.57 89.25, 55.52 55.96, 106.11 0.35 M-1.1 128.62 C34.55 90.64, 68.12 51.85, 111.15 -0.12 M-1.14 127.92 C43.63 76.44, 87.39 25.81, 110.43 0.43 M0.15 135.86 C39.87 90.36, 78.75 45.67, 114.57 1.9 M-0.21 133.57 C34.57 93.83, 69.75 53.67, 116.95 -0.31 M0.18 139.9 C46.97 86.21, 93.43 30.02, 122.79 -1.79 M-0.81 141.29 C46.84 87.69, 93.05 33.8, 122.04 0.53 M-0.28 145.93 C32.19 110.66, 62.98 75.31, 126.77 0.56 M0.28 146.01 C48.87 91.17, 96.19 36.61, 126.94 1.05 M4.17 147.36 C33.63 115.53, 60.26 81.21, 131.21 -0.09 M5.45 145.3 C48.08 95.78, 91.97 44.44, 132.55 -0.36 M9.59 145.88 C52.76 97.14, 95.04 50.82, 137.11 0.72 M10.58 145.14 C40.55 111.99, 70.41 79.21, 138.2 0.92 M16.17 147.37 C67.66 90.47, 115.34 33.35, 142.71 -0.85 M16.86 145.43 C55.08 97.93, 96.2 53.2, 143.14 -0.43 M22.08 145.45 C63.26 100.6, 103.73 49.3, 150.05 1.36 M21.13 145.13 C64.03 97.93, 104.45 49.91, 147.32 0.24 M28.56 143.7 C60.67 107.33, 96.22 65.36, 153.94 1.73 M27.18 146.15 C61.53 106.1, 96.56 66.89, 152.82 -0.64 M30.35 145.95 C79.4 97.12, 120.7 45.61, 160.46 1.1 M32.68 145.24 C58.83 114.38, 86.73 82.84, 158.69 1.12 M36.72 146.47 C71.63 109.63, 102.23 70.5, 163.97 1.06 M38.54 145.82 C74.17 103.86, 108.19 62.65, 164.37 -0.78 M41.95 144.29 C80.76 101.42, 117.73 57.11, 169.58 2.17 M43.78 145.93 C93.6 88.45, 145.14 30.07, 168.53 0.86 M50.36 145.4 C78.41 109.36, 110.61 71.49, 174.2 -1.79 M48.91 146.01 C92.45 95.36, 136.63 44.03, 174.43 0.54 M54.79 145.03 C87.27 105.3, 121.9 63.86, 181 -1.56 M52.8 144.85 C90.37 106.02, 126.01 63.93, 180.86 -0.04 M57.6 145.86 C84.8 114.96, 110.12 86.21, 184.43 -2.16 M60.07 145.44 C107.61 90.26, 154.94 33.96, 185.43 -0.1 M65.18 144.34 C107.29 99.55, 146.35 51.61, 188.71 -0.62 M63.93 144.85 C112.9 87.71, 165.08 28.53, 191.51 0.09 M68.93 144.84 C95.26 115.91, 125.16 87.23, 196.83 0.25 M69.59 146.06 C101.59 110.7, 130.61 75.64, 195.59 -0.92 M75.78 146.01 C115.95 98.67, 151.31 57.71, 201.07 -1.88 M75.14 145.93 C125.26 89.26, 172.84 33.42, 202.14 0.13 M81.18 146.94 C125.17 93.25, 168.16 41.91, 206.64 2.88 M80.89 144.97 C112.15 108.49, 144.26 70.79, 205.68 0.56 M83.63 145.48 C111.54 113.5, 141.56 79.23, 206.25 6.93 M86.26 145.31 C109.02 116.74, 134.23 87.71, 205.65 7.67 M89.61 144.41 C124.25 104.34, 162.87 61.33, 204.25 15.08 M91.17 144.48 C127.99 103.67, 163.95 60.44, 205.03 14.28 M96.16 145.79 C133.21 102.62, 166.25 61.9, 203.98 19.16 M96.89 145.38 C135.11 99.48, 174.63 54.83, 205.94 18.93 M99.82 145.11 C136.04 107.57, 173.64 66.88, 205.44 27.96 M101.45 146.08 C122.7 119.83, 143.25 94.72, 205.81 25.51 M107.16 145.61 C143.55 104.5, 179.79 61.13, 205.68 30.26 M106.47 145.74 C129.17 119.02, 151.05 92.66, 206.03 31.82 M111.12 145.26 C136.8 117.38, 157.55 91.86, 205.24 37.07 M111.92 145.21 C134.63 119.44, 159.03 93.97, 204.87 37.52 M116.8 147.25 C146.05 112.35, 176.93 76.02, 204.55 44.6 M116.25 145.15 C148.46 110.13, 178.57 75.47, 204.16 44.7 M123.2 146.49 C144.16 119.63, 167.45 96.83, 205.68 48.82 M122.54 146.21 C144.83 120.67, 165.61 95.38, 205.5 50.02 M127.62 144.62 C159.76 109.1, 188.01 77.03, 206.14 55.92 M127.27 145.58 C156.41 115.14, 182.42 82.58, 204.36 56.87 M132.13 144.28 C160.08 114.61, 188.32 84.55, 207.19 61.28 M133.12 146.9 C147.56 128.66, 162.71 112.59, 204.84 61.92 M136.56 147.28 C153.45 127.6, 173.88 104.98, 204.39 67.81 M138.4 146.16 C164.8 115.49, 191.69 83.53, 204.5 69.08 M145.02 144.98 C164.65 120.2, 185.52 95.26, 203.91 76.87 M143.92 145.53 C163.08 123.04, 183.63 98.85, 205.14 74.05 M150.89 144.41 C161.36 131.79, 177.09 112.94, 204.3 78.78 M148.33 145.24 C168.83 120.4, 190.47 97.36, 204.91 80.5 M155.34 146.59 C172.73 126.78, 189.09 103.25, 206.31 87.37 M155.04 145.51 C165.75 131.19, 177.96 117.85, 204.47 86.18 M160.29 144.79 C171.79 130.83, 181.81 120.51, 205.21 90.93 M159.55 146.35 C169.93 132.44, 181.73 118.3, 205.74 93.5 M162.96 146.72 C179.58 131.84, 189.22 116.63, 205.29 98.47 M164.37 145.47 C174.01 134.54, 183.61 124.17, 204.73 99.51 M168.81 144.85 C183.15 130.19, 192.85 119.49, 204.21 106.75 M170.37 146.18 C184.31 129.75, 196.42 115.21, 204.3 106.4 M174.11 146.61 C186.83 132.23, 198.87 121.19, 206.77 110.72 M175.64 145.21 C186.13 134.03, 195.14 122.26, 206.29 111.7 M182.87 144.64 C187.05 139.58, 191.32 132.75, 206.71 118.09 M180.9 144.63 C189 135.91, 198.83 126.27, 205.67 118.41 M185.39 147.1 C193.14 135.23, 202.74 127.87, 207.03 124.28 M186.35 145.72 C190.89 140.05, 197.05 131.55, 205.32 123.58 M191.25 143.84 C196.09 142.47, 199.93 136.62, 206.53 130.7 M191.07 144.8 C197.03 139.93, 201.4 133.69, 204.8 130.23 M196.08 145.07 C198.83 142.06, 202.43 140.45, 204.47 135.8 M196.12 145.37 C199.82 141.77, 202.27 138.47, 205.15 135.93 M201.98 145.44 C203.73 144.11, 204.09 143.29, 205.29 141.48 M202.35 145.25 C203.14 144.48, 203.72 143.57, 205.42 141.42" stroke="#ced4da" stroke-width="0.5" fill="none"></path><path d="M1.37 0.78 C69.04 0.74, 136.43 -1.56, 202.42 1.39 M0.67 0.68 C72.43 -0.87, 142.9 -1.15, 203.84 0.81 M205.18 -0.09 C205.13 48.6, 205.05 94.33, 202.67 143.82 M204.67 0.45 C203.71 45.62, 204.17 91.35, 204.05 144.64 M204.73 145.56 C135.64 142.17, 70.22 142.25, -0.3 144.36 M203.7 145.67 C158.92 144.69, 112.98 145.12, -0.3 144.93 M-0.3 144.28 C-1.89 103.69, 1.06 58.87, 1.08 -1.25 M-0.21 144.94 C1.29 94.66, 1.27 43.4, 0.73 0.56" stroke="#000000" stroke-width="1" fill="none"></path></g><g stroke-linecap="round" transform="translate(10 771.3443070884894) rotate(0 101.890625 72.5625)"><path d="M0 0 C0 0, 0 0, 0 0 M0 0 C0 0, 0 0, 0 0 M-0.7 6.5 C0.36 5.23, 1.56 3.83, 4.55 1.02 M-0.09 6.11 C1.01 4.91, 2.21 3.86, 5.26 0.46 M0.83 13.52 C5.39 8.78, 7.19 1.67, 10.71 -0.54 M-0.24 12.01 C3.65 9.51, 5.31 5.69, 10.03 -0.75 M1.87 18.14 C4.15 11.2, 10 5.4, 16.72 -1.27 M0.49 18.63 C5.13 13.15, 8.58 7.85, 15.35 -0.15 M0.66 25.57 C6.61 15.24, 16.1 6.65, 21.83 -0.52 M0.4 23.74 C5.97 16.59, 11.68 9.95, 21.5 -0.29 M-0.84 29.06 C8.55 18.6, 20.31 8.97, 26.63 1.26 M0.51 31.33 C9.44 19.89, 17.93 9.09, 26 0.25 M-1.66 38.59 C7.72 27.78, 16.44 16.92, 33.77 -2.08 M-0.28 35.95 C10.61 23.27, 21.84 10.9, 31.81 0.06 M0.64 43.32 C13.32 27.25, 25.39 16.4, 35.04 -0.8 M0.61 43.15 C7.85 34.87, 15.49 26.21, 37.84 0.85 M0.27 49.54 C13.24 34.95, 24.73 18.31, 40.8 0.46 M-0.6 49.88 C16.35 30.35, 33.32 10.87, 42.1 -0.45 M0.03 55.21 C9.01 43.21, 18.72 34.33, 47.02 0.51 M0.35 55.28 C9.31 43.5, 18.25 31.44, 48.27 0.48 M-1.66 59.67 C14.5 44.48, 28.76 29.62, 52.78 -0.73 M0.44 60.89 C19.51 37.74, 38.18 15.19, 52.87 -0.59 M-1.95 66.16 C14.27 49.46, 30.71 30.98, 59.24 -0.43 M-0.19 67.46 C16.86 47.01, 35.04 26.38, 57.87 -0.22 M0.73 71.83 C22.27 45.71, 50.31 14.62, 63.18 0.89 M-0.33 73.37 C21.94 48.13, 43.83 23.01, 63.81 0.71 M0.99 77.71 C22.45 53, 44.81 27.53, 67.98 1.1 M0.22 78.99 C17.83 58.52, 35.51 38.53, 68.42 -0.77 M-0.76 83.25 C24.24 53.68, 52.22 22.8, 73.12 -1.77 M1.12 85.54 C30.7 50.65, 59.55 16.87, 73.77 0.32 M0.8 92.03 C21 66.75, 43.7 41.73, 81.18 0.21 M0.06 91.24 C31.48 57.08, 60.78 22.54, 78.87 1.1 M0.64 98.29 C31.28 60.44, 68.32 20.07, 83.34 -1.39 M-0.67 98.17 C32.49 60.05, 67.2 20.2, 84.81 -1.1 M1.73 104.91 C32 67.33, 61.67 30.33, 90.39 -1.61 M-0.37 102.64 C31.42 64.98, 65.89 29.01, 89.37 -0.54 M1.29 109.43 C24.3 81.52, 49.21 54.69, 94.2 -0.32 M0.02 109.59 C37.15 67.9, 72.36 27.12, 96.17 -1.03 M-0.37 114.53 C32.17 80.15, 61.1 43.17, 98.77 -0.51 M0.4 115.44 C31.12 81.32, 59.41 47.9, 101.26 0.23 M-0.8 121.79 C39.8 75.75, 83.37 25.94, 105.69 1.49 M0.12 122.21 C37.42 77.55, 75.98 32.99, 106.28 -1.19 M1.34 130.18 C24.83 98.3, 52.13 72.92, 113.13 1.74 M0.42 128.44 C26.74 98.07, 52.03 68.34, 111.06 -0.88 M0.67 134.08 C45.35 80.75, 90.32 32.6, 116.75 -0.79 M0.39 133.49 C41.4 88.47, 80.59 41.3, 116.1 1.31 M-0.72 141.28 C37.46 102, 69.98 59.82, 123.9 1.75 M0.85 140 C25.69 111.68, 51.56 82.11, 122.48 -0.35 M-0.37 147.43 C45.25 96.96, 87.52 47.63, 127.95 0.14 M0.81 146.7 C40.86 99.73, 82.81 51.03, 127.74 0.89 M5.43 147.08 C56.27 87.43, 105.56 27.79, 133.11 -1.49 M6 145.77 C38.85 107.32, 73.57 67.69, 132.41 -0.85 M12.12 145.23 C43.22 106.03, 81.14 65.54, 137.47 0.19 M11.01 146.85 C44.19 107.7, 77.18 70.07, 136.55 0.04 M16.84 144.76 C63.32 89.71, 113 34.31, 142.45 1.37 M16.8 144.75 C43.05 115.41, 70.05 86.45, 142.95 0.77 M20.83 145.43 C60.1 102.37, 101.82 54.72, 147.82 0.91 M20.83 146.92 C57.68 102.74, 94.48 59.5, 147.7 0.32 M26.91 145.65 C55.3 115.13, 81.86 88.58, 153.21 -1.94 M28.09 145.53 C53.96 114.86, 78.6 84.18, 153.36 -0.51 M30.54 144.24 C73.64 98.79, 113.43 51.6, 157.1 2.22 M31.79 145.62 C76.99 92.72, 121.44 41.98, 159.55 1.1 M37.25 146.16 C75.85 101.6, 117.09 53.38, 166.32 -1.31 M38.47 145.22 C68.33 109.79, 99.18 74.88, 164.1 0.07 M41.68 144.29 C78.35 102.19, 115.65 61.43, 171.05 -1.58 M42.61 145.48 C87 94.84, 129.67 44.21, 169.66 -0.44 M49.09 145.11 C85.72 101.73, 121.13 58.55, 174.33 -0.26 M47.76 144.77 C81.96 108.56, 116.49 69.52, 174.83 -0.91 M54.31 146.54 C89.84 108.12, 124.27 64.79, 179.03 -1.83 M53.18 144.83 C101.76 92.87, 146.88 39.1, 180.77 0.69 M59.3 143.64 C92.29 106.52, 120.74 72.74, 185.4 0.08 M58.94 144.9 C83.95 116.84, 110.08 87.09, 186.37 -1.04 M64.09 146.37 C104.24 99.78, 141.35 57.75, 190.02 0.52 M64.58 145.82 C101.23 105.03, 137.01 61.83, 190.82 -0.7 M68.35 145.32 C97.65 115.64, 123.11 85.17, 195.34 0.93 M70.2 146.17 C114.74 92.85, 161.19 41.6, 196.75 -0.1 M74.33 145.5 C115.32 99.6, 156.26 51.44, 200.64 -1.11 M75.09 146.41 C119.85 94.05, 164.75 40.59, 200.9 0 M80.37 144.06 C118.44 102.3, 156.62 61.65, 206.26 -0.59 M80.89 144.96 C110.46 109.9, 140.7 75.8, 205.87 1.43 M83.94 144.04 C129.38 95.92, 171.59 44.35, 204.57 8.63 M86.17 146.38 C111.75 116.44, 136.73 87.07, 204.78 6.78 M91.1 144.14 C135.17 96.71, 178.72 45.75, 204.68 15.31 M91.58 145.45 C126.9 104.09, 162.75 61.36, 205.6 13.2 M95.49 144.47 C138.11 93.64, 183.76 44.2, 204.28 20.87 M96.47 145.32 C125.6 113.62, 154.12 80.84, 204.56 18.85 M99.88 144.26 C123.94 118.54, 151.31 89.38, 203.78 24.91 M102.01 145.62 C128.2 116.88, 152.57 88.91, 206.01 26.78 M107.13 147.65 C135.38 110.43, 169.32 74.45, 207.2 31.65 M105.82 146.62 C138.36 109.6, 169.13 74.92, 204.86 31.75 M113.05 146.19 C145.59 106.56, 179.09 66.44, 205.18 39.71 M112.44 146.04 C134.23 119.33, 158.09 93.9, 205.22 38.4 M116.67 144.81 C144.89 114.49, 170.14 84.85, 203.79 44.63 M117.24 145.49 C147.77 112.36, 175.74 79.85, 204.89 44.1 M122.54 147.86 C153.05 108.78, 184.65 72.42, 206.83 48.81 M122.31 146.82 C152.98 111.46, 183.17 77.21, 205.2 49.33 M129.54 145.56 C151.49 116.54, 179.29 86.17, 206.1 55.6 M126.95 144.96 C149.47 121.27, 169.98 97.39, 205.01 56.07 M133.92 147.82 C147.49 127.02, 162.58 110.87, 206.26 63.7 M132.26 146.13 C161.27 115.31, 188.14 82.52, 205.09 62.65 M138.77 145.89 C165.04 116.48, 189.39 86.17, 203.82 68.98 M138.33 145.88 C158.14 122.99, 178.17 99.37, 204.81 67.9 M145.05 146.22 C161.2 122.72, 181.37 104.96, 203.99 74.97 M142.79 145.24 C160.51 126.45, 177.38 106.71, 204.57 74.01 M149.06 144.14 C164.96 130.13, 177.19 112.61, 206.95 78.83 M149.98 144.87 C166.89 125.06, 185.01 105.25, 205.73 80.91 M153.43 145.63 C164.89 129.77, 179.91 115.93, 206.14 85.37 M153.57 145.18 C165 132.84, 174.9 120.62, 204.48 86.63 M160.69 145.05 C171.18 131.29, 181.75 120.36, 205.1 93.55 M159.67 146.42 C169.06 134.14, 179.89 122.75, 206.37 92.21 M164.17 146.95 C178.53 129.61, 189.27 118.63, 204.47 98.24 M165.47 146.84 C179.44 130.27, 192.83 112.5, 204.87 99.78 M169.58 143.74 C179.14 134.34, 191.74 122.06, 206.85 104.7 M170.36 144.79 C179.84 134.32, 191.48 121.02, 205.88 105.48 M173.99 145.49 C184.56 135.51, 192.48 126.22, 207.04 110.58 M174.55 144.88 C186.34 131.35, 198.7 118.61, 205.63 111.8 M179.3 145.67 C190.94 136.28, 201.03 122.63, 206.37 115.94 M180.2 146.07 C186.05 138.98, 191.35 133.22, 204.56 117.97 M187.26 146.91 C191.95 137.72, 201.38 128.41, 205.51 121.74 M186.04 145.81 C190.97 140.55, 195.95 133.59, 205.85 122.83 M193 146.71 C195.79 139.17, 200.47 133.91, 203.48 127.57 M192.51 146.16 C195.85 140.85, 198.14 136.85, 205.95 128.97 M196.2 146.73 C198.48 143.25, 203.47 137.95, 206.04 134.81 M196.46 145.86 C198.05 143.86, 200.51 141.37, 205.15 135.71 M202.07 145.28 C202.66 144.35, 203.8 142.99, 205.73 141.56 M202.15 145.2 C203.7 144.14, 204.67 142.41, 205.5 141.4" stroke="#be4bdb" stroke-width="0.5" fill="none"></path><path d="M-0.47 0.89 C75.1 0.93, 146.41 -0.15, 203.58 -1.5 M0.42 0.54 C41.57 0.49, 82.58 0.57, 203.05 0.16 M204.4 -0.21 C203.35 52.26, 204.61 108.75, 202 144.05 M203.49 0.32 C203.35 51.76, 201.77 105.49, 204.42 145.33 M204.02 144.92 C156.6 144.46, 111.43 145.09, -1.01 143.88 M203.96 144.84 C160.42 144.14, 116.13 143.77, 0.06 145.3 M-0.6 143.79 C-2.57 100.3, -0.14 55.54, 0.01 -0.57 M0.8 145.7 C0.78 99.23, 0.53 51.55, -0.4 0.95" stroke="#000000" stroke-width="1" fill="none"></path></g><g stroke-linecap="round" transform="translate(717.1420958666172 690.5404130455206) rotate(0 101.890625 72.5625)"><path d="M0 0 C0 0, 0 0, 0 0 M0 0 C0 0, 0 0, 0 0 M0.46 6.22 C0.31 5.02, 1.29 4.54, 4.52 0.38 M-0.53 6.5 C1.21 5.04, 2.57 3.18, 4.67 0.08 M0.52 12.97 C4.61 8.87, 6.27 3.08, 10.52 1.42 M0.25 11.81 C2.38 10, 5.09 6.66, 11.07 -0.01 M-0.95 17.51 C5.12 12.83, 10.94 3.08, 17.24 2.21 M0.61 18.62 C6.08 13.34, 11.39 5.78, 14.68 0.19 M1.83 24.49 C8.02 17.03, 15.73 8.17, 19.58 -1.58 M0.56 24.26 C5.4 18.13, 11.55 11.14, 21.87 0.75 M-1.7 32.45 C10.18 21.71, 19.25 9.35, 27.66 1.53 M0.97 30.42 C9.45 20.37, 18.62 9.92, 27.11 0.08 M-1.01 38.83 C12.25 21.06, 25.18 7.73, 31.68 -1.18 M-0.57 36.44 C7.43 28.5, 14.88 18.79, 31.09 0.54 M1.9 42.2 C12.03 27.5, 22.1 15.69, 37 -0.54 M0.26 41.67 C10.9 30.7, 21.37 16.96, 37.46 0.63 M-1.19 48.31 C13.7 35.8, 25.94 21.13, 41.53 0.28 M0.38 49.81 C11.19 36.84, 21.65 23.4, 41.92 -0.95 M0.08 56.54 C11.85 44.09, 19.95 32.2, 46.82 -0.51 M-0.21 53.8 C17.01 34.69, 34.97 13.87, 46.88 0.91 M1.69 61.68 C11.67 46.22, 25.4 31.11, 51.49 -1.54 M0.18 59.96 C15.26 43.22, 29.76 26.36, 52.58 -0.23 M-1.95 68.4 C18.84 46.12, 33.05 27.56, 58.28 -0.53 M-0.6 66.82 C22.2 42.66, 45.05 15.51, 57.7 -0.17 M0.3 73.29 C17.34 54.49, 34.88 34.74, 63.53 -0.58 M-0.6 73.54 C15.73 53.8, 30.72 35.65, 64.51 0.01 M-1.4 78.82 C24.31 54.14, 44.98 26.58, 68.19 -0.37 M0.08 80.27 C17.87 58.03, 36.51 37.13, 69.45 0.1 M-1.05 83.87 C27.09 55.7, 54.11 21.7, 75.29 -0.43 M-0.19 85.02 C18.06 65.03, 35.56 43.86, 74.31 -1.12 M-1.8 89.47 C19.49 73.51, 35.4 50.69, 80.97 -1.41 M0.03 91.78 C28.78 57.35, 59.09 21.24, 78.83 0.24 M0.89 97.29 C33.27 60.09, 66.63 24.06, 83.98 1.7 M-0.28 97.41 C29.25 63.71, 57.76 30.56, 85.81 -0.68 M1.57 103.65 C32.21 65.35, 62.43 28.94, 88.67 1.32 M-0.69 104.01 C20.33 80.71, 41.75 56.27, 89.75 0.6 M-1 109.52 C20.19 85.42, 41.92 59.1, 94.48 -1 M0.59 109.3 C19.29 85, 40.74 62.34, 95.98 0.06 M1.08 115.02 C26.88 83.78, 57.45 53.41, 98.96 -0.81 M1.16 115.47 C35.19 76.93, 69.22 37.03, 101.28 -0.69 M-0.21 121.17 C34.72 82.84, 68.51 41.08, 107.27 -1.01 M-0.9 121.35 C33.7 82.55, 66.87 44.38, 107 -0.33 M0.06 128.38 C24.93 101.16, 48.86 73.41, 111.15 1.91 M-0.64 129.22 C41.35 80.61, 84.27 29.82, 111.7 0.35 M2.05 134.47 C31.58 99.7, 61.8 62.31, 117.8 0.36 M-0.24 133.26 C31.42 97.87, 62.72 62.57, 115.59 1.27 M-0.57 140.66 C43.21 90.06, 84.6 42.29, 120.15 1.61 M0.83 139.87 C30.15 106.82, 59 74.23, 122.47 -0.52 M0.22 146.04 C37.27 104.22, 74.24 63.57, 127.13 1.89 M0.29 146.56 C36.41 104.76, 72.76 63.38, 127.61 -0.48 M7.68 146.59 C53.71 93.72, 97.23 39.45, 132.52 0.77 M5.62 145.3 C50.03 95.53, 92.78 44.06, 132.24 0.29 M10.83 146.77 C60.71 90.34, 112.84 32.07, 137.95 -0.99 M10.09 146.51 C55.11 96.65, 100.37 46.28, 138.15 1.19 M18.36 146.87 C50.12 108.8, 81.57 71.59, 142.42 0.24 M16.41 144.78 C59.15 94.51, 104.79 43.22, 142.84 0.19 M21.07 146.1 C62.01 101.12, 96.38 60.28, 149.26 0.76 M20.74 146.34 C49.6 112.88, 77.78 78.91, 148.13 0.06 M25.36 144.32 C72.98 93.97, 114.85 45.35, 155.66 -0.75 M27.8 145.13 C58.28 109.99, 89.64 72.15, 153.29 0.38 M32.23 147.77 C64.36 111.61, 93.67 80.28, 159.66 -1.44 M31.52 145 C68.35 103.37, 104.37 62.04, 159.67 -0.24 M38.79 146.86 C72.54 107.14, 104.14 67.66, 165.66 -0.59 M38.14 145.74 C66.91 108.69, 96.59 74.69, 163.81 -0.11 M41.23 145.88 C86.74 94.01, 130.99 45.07, 171.4 2.2 M42.87 145.28 C75.29 108.72, 106.65 71.3, 170.08 -0.27 M48.38 144.78 C98.7 86.78, 147.17 29.35, 173.47 0.71 M48.99 145.77 C86.15 102.34, 122.75 57.53, 175.8 -0.44 M52.64 144.91 C91.83 99.03, 129.42 56.35, 178.33 -0.14 M52.46 145.75 C84.83 112.07, 113.84 79.3, 179.85 -0.8 M59.51 146.76 C107.35 90.66, 157.42 31.76, 183.76 1.49 M59.09 146.22 C108.18 88.37, 155.97 33.79, 185.83 0.03 M62.61 147.72 C103.15 101.27, 140.53 56.06, 189.94 2.09 M63.12 144.82 C106.47 97.73, 147.89 48.56, 190.65 -0.77 M69.15 143.84 C103.38 110.33, 137.69 71.59, 196.84 -1.49 M70.37 145.9 C97.12 113.21, 124.32 81.45, 195.67 -0.23 M74.95 147.55 C100.51 110.62, 132.59 78.45, 199.34 1.79 M74.86 146.71 C103.94 110.65, 134.01 77.22, 201.35 0.68 M81.92 145.43 C118.78 98.41, 157.85 56.63, 207.31 0.36 M79.95 145.43 C122.5 96.44, 163.77 48.34, 204.99 0.56 M85.08 143.99 C123.73 102.82, 160.16 59.58, 204.7 5.82 M84.91 145.42 C131.98 90.51, 178.72 37.33, 205.44 7.79 M90.05 143.35 C135.22 96.46, 177.42 45.32, 206.2 14.35 M90.12 145.24 C116.79 114.91, 141.15 85.23, 205.39 14.3 M96.06 147.04 C128.74 104.3, 163.95 64.84, 205.02 20.82 M95.65 144.81 C120.73 114.23, 147.16 85.42, 204.8 20.04 M101.41 143.74 C127.32 120.73, 149.98 93.45, 207.17 24.25 M102.39 145.56 C140.35 99.42, 179.47 55.83, 204.71 26.82 M106.54 145.05 C135.71 112.26, 162.57 82.51, 204.22 30.31 M106.67 146.52 C145.88 100.14, 185.38 55.09, 205.77 31.18 M110.82 147.93 C138.38 112.58, 168.38 80.18, 204.36 37.06 M110.76 145.21 C135.12 119.27, 159.67 91.74, 204.82 38.57 M118.85 144.75 C152.97 106.38, 185.59 67.49, 205.24 45.46 M116.75 146.01 C141.6 118, 166.82 88.85, 205.34 44.11 M122.71 145.3 C139.36 125.23, 160.04 103.57, 204.21 49.38 M122.43 146.56 C145.17 118.48, 168.25 92.2, 205.41 51.08 M126.88 147.25 C152.77 114.84, 182.1 86.25, 204.65 57.57 M127.84 146.56 C149.03 122.43, 168.11 98.43, 205.6 57.24 M131.16 145.92 C152.49 124.39, 173.53 101.77, 204.76 60.19 M133.79 146.02 C153.92 121.48, 176.28 95.2, 205.41 61.7 M140.21 144.03 C163.83 120.74, 184.52 90.33, 204.64 70.55 M139.09 145.26 C159.9 121.57, 179.45 96.85, 205.9 69.07 M142.53 145.46 C160.84 123.25, 179 102.22, 207.03 75.61 M143.08 145.11 C163.1 123.17, 181.35 102.15, 204.22 74.33 M148 144.96 C171.78 122.59, 189.34 95.18, 203.69 81.95 M148.84 144.99 C168.74 122.21, 190.52 97.04, 205.42 81.16 M154.81 145.95 C167.73 130.26, 176.89 119.45, 205.63 85.85 M153.73 145.11 C168.81 127.09, 184.81 109.88, 204.43 86.41 M159.04 146.25 C169.1 132.03, 182.84 118.69, 203.93 91.7 M160.6 144.49 C177.11 125.07, 193.44 106.19, 206.51 92.87 M165.6 147.83 C179.74 128.7, 193.52 113.98, 204.82 97.79 M164.35 145.16 C173.88 134.5, 183.95 123.79, 205.86 99.47 M169.77 146.53 C181.08 130.54, 196.3 116.66, 206.44 106.83 M171.1 146.26 C177.16 136.59, 185.16 126.73, 206.09 106.13 M176.15 145.88 C181.07 139.45, 189.38 132.16, 205.16 111.9 M174.76 146.18 C183.3 135.75, 191.23 128.33, 206.14 110.12 M180.23 146.77 C190.01 135.36, 198 125.53, 205.87 118.51 M180.22 144.65 C186.44 140.05, 191.77 133.98, 206.19 118.44 M187.32 145.27 C191.36 139.13, 199.93 131.15, 206.82 123.04 M185.93 144.91 C193.23 137.95, 197.7 130.89, 206.11 122.73 M190.09 146.33 C197.51 141.25, 200.44 135.82, 206.58 130.54 M191.05 145.81 C194.65 142.08, 196.87 138.15, 206.1 129.35 M195.94 145.62 C198.91 143.15, 203.28 137.71, 205.01 136.75 M196.25 145.86 C198.9 142.18, 201.86 139.62, 205.14 136.16 M202.36 145.74 C203.48 143.65, 205.11 142.38, 205.44 141.26 M202.16 145.43 C203.19 144.19, 204.07 143.16, 205.39 141.55" stroke="#ced4da" stroke-width="0.5" fill="none"></path><path d="M0.78 0.66 C42.32 -1.72, 81.27 -2.75, 205.17 0.93 M0.68 0.7 C43.88 -1.93, 86.65 -1.3, 204.59 0.24 M203.69 0.84 C204.23 49.45, 202.49 96.29, 202.47 145.43 M204.23 0.53 C204.05 38.48, 204.05 75.24, 203.29 145.42 M204.22 144.23 C156.47 147, 110.97 145.79, -0.76 143.74 M204.33 145.58 C145.44 144.8, 87.24 144.66, -0.2 145.04 M-0.84 143.48 C-0.48 100.38, -3.11 54.09, -1.25 0.96 M-0.18 145.51 C1.31 111.01, 0.57 76.89, 0.56 0.67" stroke="#000000" stroke-width="1" fill="none"></path></g><g transform="translate(82.890625 307.4787214759637) rotate(0 29 17)"><text x="29" y="23" font-family="Virgil, Segoe UI Emoji" font-size="28px" fill="#000000" text-anchor="middle" style="white-space: pre;" direction="ltr">GUI</text></g><g transform="translate(464.3309970783778 564.2279585365106) rotate(0 26.5 17)"><text x="26.5" y="23" font-family="Virgil, Segoe UI Emoji" font-size="28px" fill="#000000" text-anchor="middle" style="white-space: pre;" direction="ltr">API</text></g><g transform="translate(749.9002456665039 363.5996891427967) rotate(0 56 13)"><text x="56" y="18" font-family="Virgil, Segoe UI Emoji" font-size="20px" fill="#000000" text-anchor="middle" style="white-space: pre;" direction="ltr">POSTGRES</text></g><g transform="translate(60.890625 568.1732255455206) rotate(0 51 13)"><text x="51" y="18" font-family="Virgil, Segoe UI Emoji" font-size="20px" fill="#000000" text-anchor="middle" style="white-space: pre;" direction="ltr">KEYCLOAK</text></g><g transform="translate(16.390625 830.9068070884894) rotate(0 95.5 13)"><text x="95.5" y="18" font-family="Virgil, Segoe UI Emoji" font-size="20px" fill="#000000" text-anchor="middle" style="white-space: pre;" direction="ltr">ANY REST CLIENT</text></g><g transform="translate(787.5327208666172 750.6029130455206) rotate(0 31.5 13)"><text x="31.5" y="18" font-family="Virgil, Segoe UI Emoji" font-size="20px" fill="#000000" text-anchor="middle" style="white-space: pre;" direction="ltr">KAFKA</text></g><g stroke-linecap="round" transform="translate(287.77930370113086 10) rotate(0 20.855010986328125 22.13976287841797)"><path d="M0 0 C0 0, 0 0, 0 0 M0 0 C0 0, 0 0, 0 0 M-0.48 6.18 C1.84 4.36, 3.72 1.81, 5.43 -0.22 M-0.12 6 C1.63 4.4, 4.01 1.89, 4.93 -0.02 M-0.81 13.36 C2.12 8.04, 3.62 5.57, 10 -0.48 M0.77 12.24 C2.68 8.77, 4.14 7.18, 10.54 0.49 M1.09 16.97 C3.91 12.26, 9.3 7.31, 16.7 0.58 M0.5 18.32 C5.19 12.33, 11.68 5.26, 16.06 0.49 M1.72 25.74 C8.48 15.74, 16.89 3.56, 22.1 1.51 M-0.28 24.58 C7.64 16.52, 13.52 9.24, 21.81 -0.46 M-1.78 30.55 C6.82 19.93, 16.56 12.89, 24.55 0.05 M-0.52 30.91 C5.15 23.13, 11.98 18.33, 27.18 -0.13 M1.62 37.42 C8.18 27.36, 18.36 16.61, 30.53 -1.02 M-0.59 36.44 C6.63 29.57, 11.83 22.64, 32.09 -0.95 M-1.69 42.33 C11.05 30.93, 21.48 18.92, 37.08 0.36 M-0.02 41.75 C13.63 27.88, 26.74 12.3, 37.81 -0.05 M2.51 46.75 C9.63 37.29, 17.87 25.72, 40.08 0.43 M3.32 45.99 C11.76 34.73, 20.35 25.65, 41.71 1.4 M6.68 47.37 C17.88 35.06, 29.85 19.96, 42.83 6.22 M8 46.27 C15.85 35.07, 26.94 24.48, 42.14 6.34 M11.29 46.62 C24.82 32.04, 35.84 21.41, 41.55 11.91 M13.22 45.79 C24.23 32.31, 35.64 18.98, 42.34 11.85 M19.88 45.18 C22.43 40.97, 30.6 32.57, 41.97 19.93 M18.19 45.94 C24.22 39.62, 30.19 32.11, 41.42 17.83 M24.09 44.66 C30 38.43, 34.44 31.22, 43.13 25.21 M23.57 46.67 C27.67 40.31, 33.18 35.71, 42.47 24.93 M29.48 46.15 C33.14 42.76, 38.82 35.41, 41.65 30.13 M29.66 46.63 C33.57 40.97, 38.53 34.79, 41.29 31.09 M33.43 45.38 C37.47 43.6, 40.09 39.98, 41.81 35.65 M34.23 47.05 C35.97 42.92, 38.79 40.98, 42.45 37.36 M39.65 45.83 C40.09 45.02, 41.22 44.36, 41.62 43.48 M39.23 46.06 C39.87 45.65, 40.55 44.84, 41.99 43.26" stroke="#4c6ef5" stroke-width="0.5" fill="none"></path><path d="M-1.86 -0.21 C10.53 -0.81, 16.91 1.6, 40.61 0.97 M-0.24 -0.24 C15.95 -0.21, 30.07 0.83, 42.43 0.32 M40.25 -0.13 C40.44 14.43, 42.65 30.59, 40.85 42.71 M42.4 0.08 C42.97 14.32, 41.47 25.75, 42.69 44.35 M40.86 42.48 C32.96 43.46, 23.4 44.39, 1.91 44.21 M41.5 43.84 C29.83 44.63, 19.53 44.77, 0.46 44.82 M-0.45 43.01 C1.07 29.17, -0.24 16.19, 1.36 -0.8 M-0.52 44.75 C-0.93 32.87, -0.73 21.12, -0.63 -0.97" stroke="#000000" stroke-width="1" fill="none"></path></g><g stroke-linecap="round" transform="translate(287.77930370113086 75.59461975097656) rotate(0 20.855010986328125 22.13976287841797)"><path d="M0 0 C0 0, 0 0, 0 0 M0 0 C0 0, 0 0, 0 0 M-0.48 6.5 C1.46 4.71, 2.68 3.47, 4.4 1.13 M-0.66 6.25 C2.02 4.37, 3.77 2, 4.61 -0.03 M1.45 11.98 C2.44 6.96, 6.28 2.58, 10.18 -1.28 M0.34 12.25 C2.58 7.79, 6.72 4.85, 11.16 0.37 M-1.6 17.13 C6.29 9.73, 13.93 5.08, 15.87 2.11 M-0.25 17.45 C4 14.05, 7.16 11.49, 15.79 1.27 M1.92 24.14 C8.94 15.52, 13.75 7.59, 22.84 0 M0.77 24.91 C4.89 18.99, 9.76 13.64, 20.87 0 M0.07 29.17 C5.89 22.83, 15.3 12.51, 26 -1.44 M0.44 30.14 C7.99 21.28, 18.53 11.08, 25.83 -0.01 M0.28 36.99 C12.9 23.6, 24.8 6.06, 30.97 -2.09 M-0.69 37.41 C10.4 24.13, 21.44 12.93, 31.04 -0.2 M-0.05 43.06 C14.49 27.45, 28.4 11.68, 36.98 1.61 M-0.63 42.27 C10.07 31.59, 19.03 22.81, 36.57 -0.62 M3.35 44.45 C13.45 32.93, 21.4 21.3, 41.68 -0.93 M2.59 46.85 C17.1 28.27, 33.81 9.25, 42.65 0.88 M8.6 45.17 C18.66 35.26, 25.89 25.65, 42.22 5.65 M7.5 45.54 C20.16 32.09, 33.39 15.99, 42.34 7.13 M13.89 46.11 C18.36 39.09, 26.79 31.39, 41.25 14.57 M13.06 45.35 C19.68 37.33, 26.43 30.21, 41.19 11.86 M17.07 45.08 C25.19 40.57, 29.13 31.33, 44.02 17.43 M17.83 46.28 C27.55 35.81, 36.07 24.83, 41.92 18.69 M21.17 47 C27.9 38.55, 33.62 34.81, 42.64 24.02 M23.19 45.93 C27 41.28, 32.58 36.81, 42.36 25.27 M28.71 45.97 C35.35 41.59, 38.03 35.27, 40.91 32.76 M29.19 45.88 C32.4 42.15, 35.09 38.4, 41.86 32.07 M32.57 46.99 C38.09 42.32, 41.79 38.28, 41.18 36.73 M34.23 46.26 C35.79 43.3, 39.53 40.33, 42.89 36.79 M39.05 46.06 C39.94 45.48, 40.97 43.99, 42.35 42.83 M39.28 46.08 C40.55 45.04, 41.42 43.85, 42.12 43.08" stroke="#ced4da" stroke-width="0.5" fill="none"></path><path d="M-0.21 1.76 C8.09 -0.25, 19.54 -0.71, 42.68 1.35 M-0.24 0.61 C16.16 -0.5, 33.59 0.82, 42.03 0.23 M41.58 -1.25 C41.38 14.01, 43.21 25.22, 40.14 44.3 M41.79 0.99 C42.34 15.51, 40.45 33.03, 41.78 43.69 M39.92 45.59 C29.5 45.93, 19.17 46.02, -0.07 43.59 M41.27 43.48 C28.24 44.17, 14.46 44.66, 0.54 44.58 M-1.27 45.74 C-0.85 27.3, 0.79 11.38, -0.8 -0.92 M0.47 43.42 C0.1 29.65, -0.4 15.72, -0.97 -0.08" stroke="#000000" stroke-width="1" fill="none"></path></g><g stroke-linecap="round" transform="translate(288.13086620113086 145.3255157470703) rotate(0 20.855010986328125 22.13976287841797)"><path d="M0 0 C0 0, 0 0, 0 0 M0 0 C0 0, 0 0, 0 0 M-0.16 6.61 C0.93 5, 2.56 3.11, 5.76 0.82 M-0.41 6.79 C1.37 5, 2.66 2.62, 4.6 0.63 M0.07 10.59 C3.58 5.79, 7.72 2.14, 9.38 -0.19 M0.34 11.55 C3.49 7.87, 8.18 3.07, 11.04 0.73 M-1.44 18.51 C2.02 15.77, 8.24 10.3, 17.41 -1.65 M-1.12 19.28 C2.85 15, 7.66 10.04, 16.56 0.88 M0.33 25.25 C6.27 15.53, 12.92 11.7, 21.33 -1.47 M1.1 23.65 C5.13 18.56, 9.72 13.5, 21.33 -0.33 M-1.31 29.18 C8.39 22.5, 14.05 12.42, 24.52 1.07 M-0.34 29.58 C9.05 21.92, 17.08 11.56, 25.95 1.23 M-0.14 37.24 C9.61 26.48, 15.25 16.07, 29.91 0.45 M0.28 37.05 C9.29 26.01, 20.35 12.83, 31.8 0.61 M0.67 43.11 C10.72 32.01, 20.54 19.86, 38.23 -0.85 M-0.11 43.1 C7.5 34.22, 17 24.25, 36 -0.22 M1.06 46.66 C10.4 33.65, 19.64 23.77, 40.31 2.61 M3.46 45 C16.66 30.14, 29.47 15.02, 42.13 0.28 M6.4 47.79 C14.32 37.33, 22.52 29.57, 41.65 7.76 M6.77 45.57 C15.82 37.08, 22.25 28.99, 43.13 5.41 M13.38 44.85 C21.92 37.32, 29.74 25.73, 43.91 11.47 M12.62 45.35 C20.23 36.37, 28.75 27.47, 41.2 12.21 M16.97 47.18 C27.57 35.83, 33.48 29.55, 41.52 19.61 M18.17 46.71 C24.51 38.83, 30.35 30.62, 42.79 18.2 M23.52 45.83 C26.82 39.98, 34.85 34.79, 41.45 23.28 M22.45 46.21 C29.21 40.03, 36.17 32.04, 42.71 25.23 M28.53 48.09 C32.77 42.35, 35.08 37.63, 43.53 29.79 M28.44 46.71 C31.72 42.25, 35 38.1, 42.85 32.09 M34.18 47.48 C35.77 45.15, 37.99 40.15, 42.25 37.04 M33.44 45.91 C36.7 43.31, 39.96 40.07, 42.31 36.69 M39.28 45.97 C40.53 45.16, 40.87 44.35, 41.7 43.47 M39.3 46.35 C40.47 45.03, 41.48 43.88, 41.94 43.31" stroke="#be4bdb" stroke-width="0.5" fill="none"></path><path d="M1.76 -0.95 C10.49 1.51, 21.17 1.01, 43.06 1.85 M0.61 -0.22 C11.85 0.93, 25.63 0.42, 41.94 -0.06 M40.46 0.1 C42.35 10.85, 40.53 16.26, 41.73 45.52 M42.7 1 C41.5 8.72, 42.99 19.3, 41.12 43.98 M43.02 43.33 C29.73 43.89, 16.01 43.84, -0.69 44.95 M40.91 44.73 C30.14 44.69, 19.08 44.64, 0.3 45.15 M1.46 43.79 C0.25 28.55, 1.46 9.72, -0.92 0.31 M-0.86 44.13 C-0.43 32.9, -0.4 21.85, -0.08 0.83" stroke="#000000" stroke-width="1" fill="none"></path></g><g transform="translate(342.4125129296465 15.6953125) rotate(0 85.5 17)"><text x="0" y="24" font-family="Virgil, Segoe UI Emoji" font-size="28px" fill="#000000" text-anchor="start" style="white-space: pre;" direction="ltr">App Services</text></g><g transform="translate(342.538367421834 81.01651000976562) rotate(0 165 17)"><text x="0" y="24" font-family="Virgil, Segoe UI Emoji" font-size="28px" fill="#000000" text-anchor="start" style="white-space: pre;" direction="ltr">Internal Infrastructure</text></g><g transform="translate(342.53403392574023 149.24130249023438) rotate(0 121 17)"><text x="0" y="24" font-family="Virgil, Segoe UI Emoji" font-size="28px" fill="#000000" text-anchor="start" style="white-space: pre;" direction="ltr">External Services</text></g><g stroke-linecap="round"><g transform="translate(103.44805064937304 410.2843017578125) rotate(0 1.9714162554479344 37.979828948155046)"><path d="M1.99 0.64 C0.73 27.21, 3.47 51.61, 2.87 76.31 M0.99 -0.35 C1.03 14.95, 2.19 29.16, 1.02 73.47" stroke="#000000" stroke-width="1" fill="none"></path></g><g transform="translate(103.44805064937304 410.2843017578125) rotate(0 1.9714162554479344 37.979828948155046)"><path d="M-6.81 45.76 C-5.59 56.57, -0.18 65.18, 1.88 75.33 M-7.81 44.78 C-6.46 50.76, -3.74 55.72, 0.03 72.5" stroke="#000000" stroke-width="1" fill="none"></path></g><g transform="translate(103.44805064937304 410.2843017578125) rotate(0 1.9714162554479344 37.979828948155046)"><path d="M13.71 46.08 C7.89 56.7, 6.28 65.2, 1.88 75.33 M12.71 45.1 C9.94 51.2, 8.54 56.09, 0.03 72.5" stroke="#000000" stroke-width="1" fill="none"></path></g></g><mask></mask><g stroke-linecap="round"><g transform="translate(105.7310706689043 750.7921447753906) rotate(0 0.21550598081284988 -40.63444962538779)"><path d="M0.77 0.02 C-0.14 -16.18, 1.33 -34.25, 0.53 -79.11 M0.44 -0.04 C-0.95 -22.59, -0.28 -42.68, 0.74 -81.29" stroke="#000000" stroke-width="1" fill="none"></path></g><g transform="translate(105.7310706689043 750.7921447753906) rotate(0 0.21550598081284988 -40.63444962538779)"><path d="M11.04 -52.82 C7.97 -57.21, 7.13 -63.54, 0.51 -79.48 M10.72 -52.88 C6.86 -61.34, 4.77 -67.39, 0.71 -81.66" stroke="#000000" stroke-width="1" fill="none"></path></g><g transform="translate(105.7310706689043 750.7921447753906) rotate(0 0.21550598081284988 -40.63444962538779)"><path d="M-9.47 -53.35 C-7.96 -57.75, -4.21 -63.96, 0.51 -79.48 M-9.8 -53.4 C-8.16 -61.83, -4.76 -67.74, 0.71 -81.66" stroke="#000000" stroke-width="1" fill="none"></path></g></g><mask></mask><g stroke-linecap="round"><g transform="translate(366.39519420406054 586.4996032714844) rotate(0 -66.807119673118 0.4331619215866951)"><path d="M1.29 -0.72 C-45.32 0.73, -91.1 2.94, -134.1 0.47 M-0.34 0.38 C-28.39 0.03, -56.66 -0.27, -134.91 1.14" stroke="#000000" stroke-width="1" fill="none"></path></g><g transform="translate(366.39519420406054 586.4996032714844) rotate(0 -66.807119673118 0.4331619215866951)"><path d="M-105.58 -10.25 C-116.41 -6.02, -126.44 -0.69, -133.26 0.32 M-107.21 -9.15 C-112.4 -7.65, -117.88 -5.96, -134.07 0.99" stroke="#000000" stroke-width="1" fill="none"></path></g><g transform="translate(366.39519420406054 586.4996032714844) rotate(0 -66.807119673118 0.4331619215866951)"><path d="M-105.28 10.27 C-116.26 7.69, -126.39 6.21, -133.26 0.32 M-106.91 11.37 C-112.31 8.53, -117.86 5.88, -134.07 0.99" stroke="#000000" stroke-width="1" fill="none"></path></g></g><mask></mask><g stroke-linecap="round"><g transform="translate(217.49321666499804 404.4075927734375) rotate(0 71.43981106206775 45.029771065339446)"><path d="M1.67 0.14 C29.2 20.34, 63.64 37.95, 142.08 89.12 M0.7 0.72 C40.42 24.61, 82.03 50.65, 142.18 89.92" stroke="#000000" stroke-width="1" fill="none"></path></g><g transform="translate(217.49321666499804 404.4075927734375) rotate(0 71.43981106206775 45.029771065339446)"><path d="M114.6 83.36 C117.52 85.64, 127.05 84.92, 141.93 89.16 M113.64 83.94 C120.82 84.76, 130.5 87.3, 142.03 89.95" stroke="#000000" stroke-width="1" fill="none"></path></g><g transform="translate(217.49321666499804 404.4075927734375) rotate(0 71.43981106206775 45.029771065339446)"><path d="M125.75 66.13 C126.15 72.24, 133.21 75.32, 141.93 89.16 M124.78 66.71 C128.95 72.44, 135.47 79.85, 142.03 89.95" stroke="#000000" stroke-width="1" fill="none"></path></g></g><mask></mask><g stroke-linecap="round"><g transform="translate(231.4949866845293 856.1393737792969) rotate(0 92.62900811809436 -85.75974789769275)"><path d="M0.3 -1.18 C46.5 -45.18, 96.85 -91.49, 183.88 -171.74 M0.2 0.22 C40.78 -35.25, 78.43 -70.99, 185.06 -171.72" stroke="#000000" stroke-width="1" fill="none"></path></g><g transform="translate(231.4949866845293 856.1393737792969) rotate(0 92.62900811809436 -85.75974789769275)"><path d="M171.98 -146.35 C173.15 -151.42, 179.46 -160.53, 184.16 -172.33 M171.85 -144.64 C175.54 -150.1, 176.91 -155.39, 185.61 -172.31" stroke="#000000" stroke-width="1" fill="none"></path></g><g transform="translate(231.4949866845293 856.1393737792969) rotate(0 92.62900811809436 -85.75974789769275)"><path d="M157.89 -161.27 C162.72 -162.55, 172.7 -167.79, 184.16 -172.33 M157.76 -159.56 C164.29 -161.84, 168.62 -163.99, 185.61 -172.31" stroke="#000000" stroke-width="1" fill="none"></path></g></g><mask></mask><g transform="translate(121.90727916499804 405.8363952636719) rotate(0 4.5 17)"><text x="0" y="24" font-family="Virgil, Segoe UI Emoji" font-size="28px" fill="#000000" text-anchor="start" style="white-space: pre;" direction="ltr">1</text></g><g transform="translate(116.47759166499804 721.4700622558594) rotate(0 4.5 17)"><text x="0" y="24" font-family="Virgil, Segoe UI Emoji" font-size="28px" fill="#000000" text-anchor="start" style="white-space: pre;" direction="ltr">1</text></g><g transform="translate(10.392569692341795 935.5514221191406) rotate(0 481 206.5)"><text x="0" y="24.416666666666664" font-family="Virgil, Segoe UI Emoji" font-size="28px" fill="#000000" text-anchor="start" style="white-space: pre;" direction="ltr">1.  The Clients, whether GUI or external, must be authenticated to </text><text x="0" y="58.83333333333333" font-family="Virgil, Segoe UI Emoji" font-size="28px" fill="#000000" text-anchor="start" style="white-space: pre;" direction="ltr">   Keycloak to consume API services.</text><text x="0" y="93.25" font-family="Virgil, Segoe UI Emoji" font-size="28px" fill="#000000" text-anchor="start" style="white-space: pre;" direction="ltr">2. Receive requests from customers</text><text x="0" y="127.66666666666666" font-family="Virgil, Segoe UI Emoji" font-size="28px" fill="#000000" text-anchor="start" style="white-space: pre;" direction="ltr">3. Validates authentication token in Keycloak</text><text x="0" y="162.08333333333331" font-family="Virgil, Segoe UI Emoji" font-size="28px" fill="#000000" text-anchor="start" style="white-space: pre;" direction="ltr">4. Receives notifications from Kafka about:</text><text x="0" y="196.5" font-family="Virgil, Segoe UI Emoji" font-size="28px" fill="#000000" text-anchor="start" style="white-space: pre;" direction="ltr">    Recent news ready to be published</text><text x="0" y="230.91666666666666" font-family="Virgil, Segoe UI Emoji" font-size="28px" fill="#000000" text-anchor="start" style="white-space: pre;" direction="ltr">    Update on the status of requested work</text><text x="0" y="265.3333333333333" font-family="Virgil, Segoe UI Emoji" font-size="28px" fill="#000000" text-anchor="start" style="white-space: pre;" direction="ltr">    New metrics produced by the Observer</text><text x="0" y="299.75" font-family="Virgil, Segoe UI Emoji" font-size="28px" fill="#000000" text-anchor="start" style="white-space: pre;" direction="ltr">5. Stores metadata of recent news and requested jobs in the </text><text x="0" y="334.16666666666663" font-family="Virgil, Segoe UI Emoji" font-size="28px" fill="#000000" text-anchor="start" style="white-space: pre;" direction="ltr">   local database</text><text x="0" y="368.5833333333333" font-family="Virgil, Segoe UI Emoji" font-size="28px" fill="#000000" text-anchor="start" style="white-space: pre;" direction="ltr">6. Integrates with Kafka to post job order requests</text><text x="0" y="403" font-family="Virgil, Segoe UI Emoji" font-size="28px" fill="#000000" text-anchor="start" style="white-space: pre;" direction="ltr">7. Notifies web client via websockets</text></g><g transform="translate(233.1431800439043 374.8370666503906) rotate(0 10.5 17)"><text x="0" y="24" font-family="Virgil, Segoe UI Emoji" font-size="28px" fill="#000000" text-anchor="start" style="white-space: pre;" direction="ltr">2</text></g><g transform="translate(240.63884654781054 855.7702941894531) rotate(0 10.5 17)"><text x="0" y="24" font-family="Virgil, Segoe UI Emoji" font-size="28px" fill="#000000" text-anchor="start" style="white-space: pre;" direction="ltr">2</text></g><g transform="translate(351.02947154781054 545.7832336425781) rotate(0 10 17)"><text x="0" y="24" font-family="Virgil, Segoe UI Emoji" font-size="28px" fill="#000000" text-anchor="start" style="white-space: pre;" direction="ltr">3</text></g><g mask="url(#mask-gdY73AZq8BDgOIzp2cQe4)" stroke-linecap="round"><g transform="translate(701.350638539998 685.6651916503906) rotate(0 -45.73093851841986 -21.866751361638308)"><path d="M0.66 0.71 C-33.91 -17.98, -65.14 -32.76, -90.92 -43.95 M0.52 0.73 C-27.51 -13.93, -52.47 -25.84, -92.13 -44.46" stroke="#000000" stroke-width="1" fill="none"></path></g><g transform="translate(701.350638539998 685.6651916503906) rotate(0 -45.73093851841986 -21.866751361638308)"><path d="M-61.59 -40.99 C-73.92 -44.63, -82.63 -44.65, -90.88 -44.85 M-61.74 -40.98 C-71.65 -43.5, -78.6 -43.62, -92.08 -45.35" stroke="#000000" stroke-width="1" fill="none"></path></g><g transform="translate(701.350638539998 685.6651916503906) rotate(0 -45.73093851841986 -21.866751361638308)"><path d="M-70.35 -22.43 C-79.38 -32.74, -84.92 -39.48, -90.88 -44.85 M-70.5 -22.42 C-77.93 -30.26, -82.35 -35.73, -92.08 -45.35" stroke="#000000" stroke-width="1" fill="none"></path></g></g><mask id="mask-gdY73AZq8BDgOIzp2cQe4"><rect x="0" y="0" fill="#fff" width="893.520804555623" height="829.2285461425781"></rect><rect x="645.7655555321855" y="646.8835144042969" fill="#000" width="19" height="34" opacity="1"></rect></mask><g transform="translate(645.7655555321855 646.8835144042969) rotate(0 9.854144489392638 16.914925884455442)"><text x="9.5" y="23" font-family="Virgil, Segoe UI Emoji" font-size="28px" fill="#000000" text-anchor="middle" style="white-space: pre;" direction="ltr">4</text></g><g mask="url(#mask-wCIOdLdQqlZtdsFxrIGma)" stroke-linecap="round"><g transform="translate(619.1198035790605 505.4915466308594) rotate(0 38.16353963688016 -24.76674296706915)"><path d="M0.87 1.02 C22.63 -15.81, 45.13 -32.61, 74.45 -50.56 M0.26 0.69 C26.94 -17.65, 52.67 -34.31, 76.07 -50.46" stroke="#000000" stroke-width="1" fill="none"></path></g><g transform="translate(619.1198035790605 505.4915466308594) rotate(0 38.16353963688016 -24.76674296706915)"><path d="M59.38 -25.11 C63.12 -33.63, 67.56 -42.38, 74.46 -50.62 M58.77 -25.45 C65.23 -35.03, 70.71 -42.67, 76.08 -50.52" stroke="#000000" stroke-width="1" fill="none"></path></g><g transform="translate(619.1198035790605 505.4915466308594) rotate(0 38.16353963688016 -24.76674296706915)"><path d="M47.85 -42.09 C55.17 -45.41, 63.17 -48.93, 74.46 -50.62 M47.24 -42.42 C57.71 -46.07, 67.18 -47.84, 76.08 -50.52" stroke="#000000" stroke-width="1" fill="none"></path></g></g><mask id="mask-wCIOdLdQqlZtdsFxrIGma"><rect x="0" y="0" fill="#fff" width="795.1744910790605" height="655.8865051269531"></rect><rect x="648.1471473290605" y="463.2940673828125" fill="#000" width="18" height="34" opacity="1"></rect></mask><g transform="translate(648.1471473290605 463.2940673828125) rotate(0 9.13619588688016 17.430736280977726)"><text x="9" y="23" font-family="Virgil, Segoe UI Emoji" font-size="28px" fill="#000000" text-anchor="middle" style="white-space: pre;" direction="ltr">5</text></g><g mask="url(#mask-_SYDnIx9qhVrggj6zj_n-)" stroke-linecap="round"><g transform="translate(605.964408071248 588.9612121582031) rotate(0 74.36451672390103 40.15097353607416)"><path d="M0.52 -0.67 C53.9 30.22, 110.88 59.49, 148.38 80.97 M-0.91 0.31 C43.92 23.21, 89.27 46.91, 149.63 80.26" stroke="#000000" stroke-width="1" fill="none"></path></g><g transform="translate(605.964408071248 588.9612121582031) rotate(0 74.36451672390103 40.15097353607416)"><path d="M120.49 75.09 C129.78 79.03, 142.98 80.32, 148.46 80.13 M119.07 76.07 C128.18 77.25, 138.03 78.27, 149.72 79.42" stroke="#000000" stroke-width="1" fill="none"></path></g><g transform="translate(605.964408071248 588.9612121582031) rotate(0 74.36451672390103 40.15097353607416)"><path d="M130.32 57.08 C136.1 67.67, 145.71 75.55, 148.46 80.13 M128.9 58.06 C135.15 64.65, 142.09 71, 149.72 79.42" stroke="#000000" stroke-width="1" fill="none"></path></g></g><mask id="mask-_SYDnIx9qhVrggj6zj_n-"><rect x="0" y="0" fill="#fff" width="855.512992055623" height="770.0549621582031"></rect><rect x="671.2387000634355" y="612.5080871582031" fill="#000" width="19" height="34" opacity="1"></rect></mask><g transform="translate(671.2387000634355 612.5080871582031) rotate(0 9.090224731713533 16.60409853607416)"><text x="9.5" y="23" font-family="Virgil, Segoe UI Emoji" font-size="28px" fill="#000000" text-anchor="middle" style="white-space: pre;" direction="ltr">6</text></g><g mask="url(#mask-8JXJFsMqbIXl_fI-T091w)" stroke-linecap="round"><g transform="translate(447.2838050439043 483.1048889160156) rotate(0 -106.28204992781042 -94.43359142853797)"><path d="M-0.94 -0.25 C-69.59 -64.89, -141.22 -127.23, -212.3 -188.62 M-0.26 -0.74 C-68.31 -60.18, -135.02 -118.48, -210.88 -188.07" stroke="#000000" stroke-width="1" fill="none"></path></g><g transform="translate(447.2838050439043 483.1048889160156) rotate(0 -106.28204992781042 -94.43359142853797)"><path d="M-184.34 -177.06 C-190.53 -182.17, -200.39 -184.51, -212.79 -189.15 M-183.45 -177.71 C-192.36 -181.02, -201.1 -183.09, -210.92 -188.43" stroke="#000000" stroke-width="1" fill="none"></path></g><g transform="translate(447.2838050439043 483.1048889160156) rotate(0 -106.28204992781042 -94.43359142853797)"><path d="M-198.12 -161.86 C-199.64 -172.09, -204.84 -179.57, -212.79 -189.15 M-197.23 -162.51 C-201.92 -170.61, -206.29 -177.5, -210.92 -188.43" stroke="#000000" stroke-width="1" fill="none"></path></g></g><mask id="mask-8JXJFsMqbIXl_fI-T091w"><rect x="0" y="0" fill="#fff" width="758.1388465478105" height="770.9000244140625"></rect><rect x="333.85628429195117" y="372.2073211669922" fill="#000" width="16" height="34" opacity="1"></rect></mask><g transform="translate(333.85628429195117 372.2073211669922) rotate(0 7.145470824142706 16.46397632048547)"><text x="8" y="23" font-family="Virgil, Segoe UI Emoji" font-size="28px" fill="#000000" text-anchor="middle" style="white-space: pre;" direction="ltr">7</text></g></svg>